<?xml version="1.0" encoding="UTF-8"?>
<svg version="1.1" xmlns="http://www.w3.org/2000/svg" width="185" height="183">
<path d="M0 0 C23.01753542 0.29636312 44.84713125 10.19702829 60.87646484 26.4609375 C78.40280117 45.26797708 86.04447884 72.78696055 85.26123047 97.93847656 C83.947993 120.82363986 70.67115011 142.5463003 54.375 158 C48.74071932 162.88536548 42.56600544 166.59507637 36.125 170.3125 C35.16464844 170.94414062 34.20429688 171.57578125 33.21484375 172.2265625 C23.0070692 178.54758231 11.86284551 179.83398705 0.125 181.3125 C-0.98633301 181.45558594 -0.98633301 181.45558594 -2.12011719 181.6015625 C-9.81963178 182.53529336 -16.40768129 182.31326036 -23.875 180.3125 C-24.99261719 180.06628906 -26.11023438 179.82007813 -27.26171875 179.56640625 C-51.92012029 173.76897642 -71.50998332 158.73630992 -84.875 137.3125 C-97.69112418 115.32426336 -102.30532966 91.28326924 -95.91015625 66.390625 C-91.15144326 49.29597604 -81.42212521 29.94398866 -65.875 20.3125 C-61.5385592 20.64607237 -57.98497294 23.42929592 -54.875 26.3125 C-53.6875 28.8125 -53.6875 28.8125 -53.875 31.3125 C-56.36797484 34.7145462 -59.18566179 37.67414968 -62.125 40.6875 C-76.74077106 56.89246527 -80.79340847 77.43296829 -80.04541016 98.66064453 C-78.9428838 115.81772366 -69.9133996 135.22526071 -57.1953125 146.73828125 C-39.03944421 161.0655248 -19.57356728 166.12183997 3.125 164.3125 C7.61546098 163.67753146 11.80942672 162.69372057 16.125 161.3125 C17.0634375 161.02246094 18.001875 160.73242188 18.96875 160.43359375 C36.51694163 154.54311931 51.01413524 143.01968228 59.8125 126.5625 C68.50466782 108.06305073 71.18426679 85.97832003 65.1953125 66.25 C56.86349395 44.6447326 41.23102987 29.70926494 20.8125 19.5 C15.34450041 17.11798222 9.62047798 15.88230728 3.78588867 14.74291992 C-1.66824307 13.6226354 -1.66824307 13.6226354 -3.875 10.3125 C-4.32421875 8.0859375 -4.32421875 8.0859375 -4.5625 5.6875 C-4.64886719 4.89085937 -4.73523438 4.09421875 -4.82421875 3.2734375 C-4.84097656 2.62632813 -4.85773438 1.97921875 -4.875 1.3125 C-3.875 0.3125 -3.875 0.3125 0 0 Z " fill="#913FC9" transform="translate(98.875,0.6875)"/>
<path d="M0 0 C11.97900281 8.92702757 20.22454289 20.89434307 25 35 C25.24492187 35.71027344 25.48984375 36.42054687 25.7421875 37.15234375 C27.89014926 44.81733059 27.16290637 53.11714192 27 61 C23.20960634 63.12999997 20.34263862 63.16702456 16 63 C14.06157216 58.85080321 13.54652633 54.87805665 13.125 50.375 C11.40314942 34.93808244 4.98521693 22.08771894 -7 12 C-19.15306198 3.29708959 -33.26464814 -1.58197145 -48.1875 0.4296875 C-63.03307312 3.11382014 -76.47022602 9.78178884 -85.25 22.375 C-86.19191481 23.90137164 -87.10872459 25.44351613 -88 27 C-88.45246094 27.78246094 -88.90492187 28.56492188 -89.37109375 29.37109375 C-95.91728609 41.51165819 -98.14207466 55.10942327 -94.875 68.625 C-91.41401629 79.53671252 -86.14358675 87.98544895 -78 96 C-77.4121875 96.58652344 -76.824375 97.17304688 -76.21875 97.77734375 C-66.46249232 106.82029014 -53.50838188 109.80073362 -40.5 110.375 C-28.27143034 109.81384193 -15.57793026 107.10944652 -5.86328125 99.27734375 C-4 98 -4 98 -0.9375 98.5625 C2.14591656 100.07140598 3.10095429 101.24441142 5 104 C-4.51258447 113.19645628 -15.23544007 119.50412052 -28 123 C-28 123.66 -28 124.32 -28 125 C-29.99954746 125.04254356 -32.00041636 125.04080783 -34 125 C-34.33 124.67 -34.66 124.34 -35 124 C-36.52174436 124.03368046 -38.04269177 124.10369537 -39.5625 124.1875 C-57.76454539 124.25795953 -77.1685731 115.70396239 -90 103 C-102.65656332 89.76813835 -108.67286593 71.51400572 -108.47705078 53.37402344 C-107.66560456 33.43170117 -98.87929865 16.99622706 -84.625 3.28515625 C-60.85902785 -17.40397129 -25.61809559 -17.17954064 0 0 Z " fill="#913ECA" transform="translate(133,36)"/>
<path d="M0 0 C4.27738525 1.83316511 8.12031796 4.05757729 10.15625 8.34375 C9.78275409 13.32369548 5.0642416 16.7890194 1.71875 20.21875 C-12.89702106 36.42371527 -16.94965847 56.96421829 -16.20166016 78.19189453 C-15.0991338 95.34897366 -6.0696496 114.75651071 6.6484375 126.26953125 C20.92341325 137.53426676 36.90673498 143.55360607 54.96875 144.84375 C48.88307912 147.88658544 44.80459993 149.07547373 37.96875 148.84375 C37.63875 150.49375 37.30875 152.14375 36.96875 153.84375 C37.5875 154.09125 38.20625 154.33875 38.84375 154.59375 C41.34355203 156.06422178 41.80191022 157.25778076 42.96875 159.84375 C24.82513746 157.8841047 9.64900989 149.61945758 -4.03125 137.84375 C-4.63582031 137.32425781 -5.24039062 136.80476562 -5.86328125 136.26953125 C-23.31413238 120.04473524 -33.63154443 95.51856775 -35.21875 72.07421875 C-35.77367024 48.38606085 -27.23515188 25.11875726 -11.03125 7.84375 C-3.13660774 -0.24127752 -3.13660774 -0.24127752 0 0 Z " fill="#6800FE" transform="translate(35.03125,21.15625)"/>
<path d="M0 0 C10.29726199 9.85992654 16.66719958 20.29935983 17.0234375 34.9375 C15.76776785 50.7230613 10.23231847 63.24109134 -1.2265625 74.1875 C-10.63456651 82.19227629 -21.85970952 85.52540841 -34.09716797 84.70874023 C-47.28830735 83.45251121 -59.09134485 78.00623571 -67.9765625 67.9375 C-76.14022494 57.29757987 -79.08497892 47.28404836 -77.9765625 33.9375 C-75.88769638 19.05635298 -70.53457388 7.73790859 -58.74609375 -1.8828125 C-41.14045766 -14.2846588 -16.72864884 -14.42768227 0 0 Z M-58.7265625 9 C-66.98471435 17.88436242 -69.48272297 28.3114995 -69.25390625 40.0390625 C-68.46795529 51.08665481 -63.06810975 59.22538246 -55.2265625 66.6875 C-47.24994893 73.29195509 -38.19659891 75.21622827 -27.9765625 74.9375 C-16.07167478 73.60333155 -7.13689787 69.62808994 0.44921875 60.23828125 C7.11263682 50.49943945 8.48745466 40.43546241 7.0234375 28.9375 C4.50490051 18.03321972 -3.1654755 9.47427224 -11.9765625 2.9375 C-17.73157674 -0.31582189 -24.43167209 -1.0625 -30.9765625 -1.0625 C-41.2702885 -1.0625 -50.99090853 2.02941071 -58.7265625 9 Z " fill="#913FCA" transform="translate(123.9765625,55.0625)"/>
<path d="M0 0 C0.99 0.33 1.98 0.66 3 1 C3 1.99 3 2.98 3 4 C3.66 4.33 4.32 4.66 5 5 C5 5.99 5 6.98 5 8 C4.34 8 3.68 8 3 8 C3.0721875 8.53882812 3.144375 9.07765625 3.21875 9.6328125 C3.87863033 15.48008539 4.0083039 21.21073763 3.91650391 27.0859375 C3.66953426 39.81751904 3.66953426 39.81751904 7 52 C7.4021875 52.97839844 7.804375 53.95679688 8.21875 54.96484375 C11.63786856 62.49640214 16.12687391 68.21993401 22 74 C22.5878125 74.58652344 23.175625 75.17304688 23.78125 75.77734375 C33.53750768 84.82029014 46.49161812 87.80073362 59.5 88.375 C71.72856966 87.81384193 84.42206974 85.10944652 94.13671875 77.27734375 C96 76 96 76 99.0625 76.5625 C102.14591656 78.07140598 103.10095429 79.24441142 105 82 C95.48741553 91.19645628 84.76455993 97.50412052 72 101 C72 101.66 72 102.32 72 103 C70.00045254 103.04254356 67.99958364 103.04080783 66 103 C65.67 102.67 65.34 102.34 65 102 C63.47825564 102.03368046 61.95730823 102.10369537 60.4375 102.1875 C42.23545461 102.25795953 22.8314269 93.70396239 10 81 C-2.65656332 67.76813835 -8.67286593 49.51400572 -8.47705078 31.37402344 C-8.02942846 20.37313583 -4.91000915 9.8200183 0 0 Z " fill="#6800FD" transform="translate(33,58)"/>
<path d="M0 0 C1.65 0 3.3 0 5 0 C5 0.99 5 1.98 5 3 C5.66 3 6.32 3 7 3 C6.835 4.010625 6.67 5.02125 6.5 6.0625 C4.97252573 18.9206416 5.16517603 30.4463292 12.8125 41.3125 C19.98323497 50.05686259 27.83872192 54.62856118 39.1875 55.9375 C45.7842456 56.31445689 51.62094233 55.0745138 57.98046875 53.49609375 C58.97691406 53.33238281 59.97335938 53.16867188 61 53 C61.66 53.66 62.32 54.32 63 55 C62.236875 55.53625 61.47375 56.0725 60.6875 56.625 C57.80166171 58.81645955 57.80166171 58.81645955 56.75 62.125 C55 65 55 65 51.375 66.5 C37.06311428 68.7107791 23.984804 64.34694053 12.37890625 56.1484375 C4.01273608 49.2918461 -2.23863955 39.75858002 -4 29 C-4.85852229 19.64089788 -4.27123118 8.54246236 0 0 Z " fill="#6901FD" transform="translate(50,73)"/>
<path d="M0 0 C0 0.66 0 1.32 0 2 C1.98 2.33 3.96 2.66 6 3 C6 2.34 6 1.68 6 1 C6.7425 1.185625 7.485 1.37125 8.25 1.5625 C10.94990963 1.99203108 12.44631077 1.85122974 15 1 C14.34 2.32 13.68 3.64 13 5 C12.34 5 11.68 5 11 5 C10.67 6.32 10.34 7.64 10 9 C8.68 9.33 7.36 9.66 6 10 C6 10.66 6 11.32 6 12 C9.465 11.505 9.465 11.505 13 11 C12.67 11.99 12.34 12.98 12 14 C-20.71934367 19.54624269 -20.71934367 19.54624269 -29 15 C-29.33 14.01 -29.66 13.02 -30 12 C-31.32303717 11.6278958 -32.65737935 11.29369827 -34 11 C-34.33 10.34 -34.66 9.68 -35 9 C-34.34 9 -33.68 9 -33 9 C-33 7.68 -33 6.36 -33 5 C-31.865625 4.896875 -30.73125 4.79375 -29.5625 4.6875 C-26.41874499 4.30760666 -23.71150309 3.6098869 -20.75 2.5 C-14.06684202 0.11730889 -7.03676999 0 0 0 Z " fill="#872AD7" transform="translate(106,165)"/>
<path d="M0 0 C2.96220128 1.49117615 4.18617164 2.63710898 5.87109375 5.4453125 C-3.64149072 14.64176878 -14.36434632 20.94943302 -27.12890625 24.4453125 C-27.12890625 25.1053125 -27.12890625 25.7653125 -27.12890625 26.4453125 C-29.12845371 26.48785606 -31.12932261 26.48612033 -33.12890625 26.4453125 C-33.45890625 26.1153125 -33.78890625 25.7853125 -34.12890625 25.4453125 C-35.64818663 25.37351286 -37.17058107 25.36139243 -38.69140625 25.3828125 C-39.93083984 25.39634766 -39.93083984 25.39634766 -41.1953125 25.41015625 C-41.83339844 25.42175781 -42.47148438 25.43335938 -43.12890625 25.4453125 C-40.62893966 22.4675366 -38.08179554 21.49982767 -34.44140625 20.2578125 C-33.44753906 19.91363281 -32.45367187 19.56945312 -31.4296875 19.21484375 C-30.67042969 18.96089844 -29.91117188 18.70695312 -29.12890625 18.4453125 C-28.91234375 17.0221875 -28.91234375 17.0221875 -28.69140625 15.5703125 C-28.12890625 12.4453125 -28.12890625 12.4453125 -27.12890625 10.4453125 C-25.18981167 9.81970247 -23.2258611 9.27052076 -21.25390625 8.7578125 C-15.15305867 7.00992971 -10.68739654 4.47606088 -5.6640625 0.640625 C-3.12890625 -0.5546875 -3.12890625 -0.5546875 0 0 Z " fill="#882FD2" transform="translate(132.12890625,134.5546875)"/>
<path d="M0 0 C4.27295516 1.79550439 8.09626411 4.04970076 10.12109375 8.3125 C9.74332961 13.34935523 4.73909893 17.16714935 1.43359375 20.75 C-1.10742908 23.54136991 -3.49188392 26.24104189 -5.50390625 29.4375 C-6.01953125 30.22125 -6.53515625 31.005 -7.06640625 31.8125 C-7.72640625 31.8125 -8.38640625 31.8125 -9.06640625 31.8125 C-12.54995008 24.8311938 -12.60353876 15.36879147 -11.06640625 7.8125 C-8.61308338 3.8021622 -5.12688662 -0.46519954 0 0 Z " fill="#882DD4" transform="translate(35.06640625,21.1875)"/>
<path d="M0 0 C0.66 0 1.32 0 2 0 C2 0.66 2 1.32 2 2 C4.97 2.495 4.97 2.495 8 3 C8 2.34 8 1.68 8 1 C8.7425 1.185625 9.485 1.37125 10.25 1.5625 C12.94990963 1.99203108 14.44631077 1.85122974 17 1 C16.34 2.32 15.68 3.64 15 5 C14.34 5 13.68 5 13 5 C12.67 6.32 12.34 7.64 12 9 C10.68 9.33 9.36 9.66 8 10 C8 10.66 8 11.32 8 12 C11.465 11.505 11.465 11.505 15 11 C14.67 11.99 14.34 12.98 14 14 C10.93852743 14.50642925 7.87567701 15.00399322 4.8125 15.5 C3.94818359 15.64308594 3.08386719 15.78617188 2.19335938 15.93359375 C-1.90526577 16.59314262 -5.83226024 17.20709266 -10 17 C-8.625 15 -8.625 15 -7 13 C-6.34 13 -5.68 13 -5 13 C-5 12.34 -5 11.68 -5 11 C-4.01 11 -3.02 11 -2 11 C-1.67 10.01 -1.34 9.02 -1 8 C-0.67 7.67 -0.34 7.34 0 7 C-1.98 7 -3.96 7 -6 7 C-5.04882866 5.8274869 -4.08882991 4.66212985 -3.125 3.5 C-2.59132813 2.8503125 -2.05765625 2.200625 -1.5078125 1.53125 C-1.01023437 1.0259375 -0.51265625 0.520625 0 0 Z " fill="#8A30D4" transform="translate(104,165)"/>
<path d="M0 0 C0 0.66 0 1.32 0 2 C-0.66 2 -1.32 2 -2 2 C-2 2.66 -2 3.32 -2 4 C-5 5 -5 5 -8.6875 5.25 C-13.60211426 5.78796334 -17.05790511 8.15875607 -21 11 C-20.67 11.66 -20.34 12.32 -20 13 C-20.99 12.67 -21.98 12.34 -23 12 C-23 11.34 -23 10.68 -23 10 C-23.639375 9.87625 -24.27875 9.7525 -24.9375 9.625 C-25.618125 9.41875 -26.29875 9.2125 -27 9 C-27.33 8.34 -27.66 7.68 -28 7 C-27.34 7 -26.68 7 -26 7 C-26 5.68 -26 4.36 -26 3 C-24.865625 2.896875 -23.73125 2.79375 -22.5625 2.6875 C-19.32845646 2.30601951 -16.59646744 1.54478674 -13.5625 0.375 C-8.7097204 -1.37504421 -5.0380563 -0.87966062 0 0 Z " fill="#7708ED" transform="translate(99,167)"/>
<path d="M0 0 C-4.53781513 4.78991597 -4.53781513 4.78991597 -7.0625 5.9375 C-9.32261104 6.98251298 -9.32261104 6.98251298 -11 10 C-12.92547189 12.88820783 -13.81890922 13.86389615 -17 15 C-17 12 -17 12 -15 9.8125 C-14.01 8.9153125 -14.01 8.9153125 -13 8 C-13.928125 8.37125 -14.85625 8.7425 -15.8125 9.125 C-17.3903125 9.558125 -17.3903125 9.558125 -19 10 C-19.99 9.34 -20.98 8.68 -22 8 C-22 8.66 -22 9.32 -22 10 C-23.65 10.33 -25.3 10.66 -27 11 C-27.33 9.68 -27.66 8.36 -28 7 C-9.0962788 -0.33077377 -9.0962788 -0.33077377 0 0 Z " fill="#8F3ACC" transform="translate(134,158)"/>
<path d="M0 0 C0.66 0 1.32 0 2 0 C2.66 1.32 3.32 2.64 4 4 C3.34 4 2.68 4 2 4 C2 6.31 2 8.62 2 11 C2.66 11.33 3.32 11.66 4 12 C1.25 16.875 1.25 16.875 -1 18 C-0.67 18.66 -0.34 19.32 0 20 C-0.99 20 -1.98 20 -3 20 C-2.67 21.98 -2.34 23.96 -2 26 C-2.66 26 -3.32 26 -4 26 C-6.08456852 21.71505361 -6.26867783 18.10983057 -6.25 13.375 C-6.25515625 12.06273437 -6.2603125 10.75046875 -6.265625 9.3984375 C-6 6 -6 6 -4 3 C-4 3.66 -4 4.32 -4 5 C-2.68 5.33 -1.36 5.66 0 6 C0 5.34 0 4.68 0 4 C-0.66 3.67 -1.32 3.34 -2 3 C-1.34 2.01 -0.68 1.02 0 0 Z " fill="#7B11E7" transform="translate(30,27)"/>
<path d="M0 0 C0.99 0.33 1.98 0.66 3 1 C3 1.99 3 2.98 3 4 C3.66 4.33 4.32 4.66 5 5 C5 5.99 5 6.98 5 8 C4.34 8 3.68 8 3 8 C3.08378906 8.74765625 3.16757812 9.4953125 3.25390625 10.265625 C3.35574219 11.25046875 3.45757812 12.2353125 3.5625 13.25 C3.66691406 14.22453125 3.77132812 15.1990625 3.87890625 16.203125 C3.98974468 18.7631352 3.77738092 20.58148159 3 23 C-1.22797927 19.91709845 -1.22797927 19.91709845 -3 18 C-3.375 15.1875 -3.375 15.1875 -3 13 C-3.66 12.67 -4.32 12.34 -5 12 C-4.35522931 10.37457807 -3.70914857 8.74967576 -3.0625 7.125 C-2.52302734 5.76761719 -2.52302734 5.76761719 -1.97265625 4.3828125 C-1 2 -1 2 0 0 Z " fill="#780CEB" transform="translate(33,58)"/>
<path d="M0 0 C0.53625 0.2475 1.0725 0.495 1.625 0.75 C0.635 1.08 -0.355 1.41 -1.375 1.75 C-0.715 4.06 -0.055 6.37 0.625 8.75 C-3.49364955 12.47007056 -9.58236961 16.75 -15.375 16.75 C-14.5625 13.8125 -14.5625 13.8125 -13.375 10.75 C-12.385 10.42 -11.395 10.09 -10.375 9.75 C-9.9728125 8.3578125 -9.9728125 8.3578125 -9.5625 6.9375 C-7.93805473 2.57714692 -4.92724689 -0.51865757 0 0 Z " fill="#8A31D4" transform="translate(120.375,121.25)"/>
<path d="M0 0 C-0.66 1.32 -1.32 2.64 -2 4 C-2.66 4 -3.32 4 -4 4 C-4.33 5.32 -4.66 6.64 -5 8 C-6.32 8.33 -7.64 8.66 -9 9 C-9 9.66 -9 10.32 -9 11 C-5.535 10.505 -5.535 10.505 -2 10 C-2.33 10.99 -2.66 11.98 -3 13 C-14.52164009 15.29612756 -14.52164009 15.29612756 -20 15 C-20 14.34 -20 13.68 -20 13 C-18.68 12.34 -17.36 11.68 -16 11 C-16.33 10.01 -16.66 9.02 -17 8 C-13 6.66666667 -9 5.33333333 -5 4 C-4.67 3.01 -4.34 2.02 -4 1 C-2 0 -2 0 0 0 Z " fill="#8526DC" transform="translate(121,166)"/>
<path d="M0 0 C0.79921875 0.00902344 1.5984375 0.01804688 2.421875 0.02734375 C3.02515625 0.03894531 3.6284375 0.05054688 4.25 0.0625 C0.5 2.0625 0.5 2.0625 -1.75 2.0625 C-1.85570313 2.65933594 -1.96140625 3.25617188 -2.0703125 3.87109375 C-3.30125665 7.83982747 -6.303234 9.92992554 -9.75 12.0625 C-13.3621548 13.36675455 -16.99123181 14.28763639 -20.75 15.0625 C-21.08 14.4025 -21.41 13.7425 -21.75 13.0625 C-18.12 11.7425 -14.49 10.4225 -10.75 9.0625 C-10.5334375 7.639375 -10.5334375 7.639375 -10.3125 6.1875 C-9.75 3.0625 -9.75 3.0625 -8.75 1.0625 C-5.81699331 0.0307565 -3.08787164 -0.04540988 0 0 Z " fill="#7F1CE2" transform="translate(113.75,143.9375)"/>
<path d="M0 0 C1.98 0 3.96 0 6 0 C6 0.33 6 0.66 6 1 C4.35 1 2.7 1 1 1 C1.33 2.32 1.66 3.64 2 5 C0.87720538 5.98169476 -0.24831473 6.96027298 -1.375 7.9375 C-2.00148438 8.48277344 -2.62796875 9.02804688 -3.2734375 9.58984375 C-6.53118232 12.25058104 -8.87122208 12.08975604 -13 12 C-11.625 10 -11.625 10 -10 8 C-9.34 8 -8.68 8 -8 8 C-7.67 6.68 -7.34 5.36 -7 4 C-5.02 3.67 -3.04 3.34 -1 3 C-0.67 2.01 -0.34 1.02 0 0 Z " fill="#872AD8" transform="translate(119,142)"/>
<path d="M0 0 C-0.33 1.32 -0.66 2.64 -1 4 C-1.99 4 -2.98 4 -4 4 C-4 4.66 -4 5.32 -4 6 C-7.41831915 8.5393228 -9.75776898 9.3636198 -14 9 C-14.33 7.68 -14.66 6.36 -15 5 C-12.33333333 3.66666667 -9.66666667 2.33333333 -7 1 C-6.31421875 0.60554687 -5.6284375 0.21109375 -4.921875 -0.1953125 C-3 -1 -3 -1 0 0 Z " fill="#811DE1" transform="translate(92,172)"/>
<path d="M0 0 C1.65 0 3.3 0 5 0 C5 0.99 5 1.98 5 3 C5.66 3 6.32 3 7 3 C6.125 10.75 6.125 10.75 5 13 C3 12 3 12 2 9 C1.34 8.67 0.68 8.34 0 8 C0 7.34 0 6.68 0 6 C-0.66 5.67 -1.32 5.34 -2 5 C-1.34 3.35 -0.68 1.7 0 0 Z " fill="#811EE1" transform="translate(50,73)"/>
<path d="M0 0 C0.598125 0.20625 1.19625 0.4125 1.8125 0.625 C1.544375 1.24375 1.27625 1.8625 1 2.5 C-0.6358787 6.80494393 -1.90021326 11.20531552 -3.1875 15.625 C-5.41804053 12.27918921 -5.48433128 10.98490189 -5.5 7.0625 C-5.51675781 6.09183594 -5.53351562 5.12117188 -5.55078125 4.12109375 C-5.43089844 3.29738281 -5.31101563 2.47367187 -5.1875 1.625 C-2.1875 -0.375 -2.1875 -0.375 0 0 Z " fill="#882ED5" transform="translate(41.1875,64.375)"/>
<path d="M0 0 C0.66 0.66 1.32 1.32 2 2 C0.7934375 2.433125 0.7934375 2.433125 -0.4375 2.875 C-3.1326468 3.73262568 -3.1326468 3.73262568 -4 6 C-4.99 6 -5.98 6 -7 6 C-7 6.66 -7 7.32 -7 8 C-10.50331713 11.40027839 -13.15833214 12.54961229 -18 13 C-17.67 12.01 -17.34 11.02 -17 10 C-13.9375 8.8125 -13.9375 8.8125 -11 8 C-11 7.34 -11 6.68 -11 6 C-8.9108929 3.43639539 -6.90818456 2.37822747 -3.8125 1.3125 C-3.09707031 1.06113281 -2.38164063 0.80976563 -1.64453125 0.55078125 C-1.10183594 0.36902344 -0.55914062 0.18726563 0 0 Z " fill="#8321DE" transform="translate(106,170)"/>
<path d="M0 0 C-4.53781513 4.78991597 -4.53781513 4.78991597 -7.0625 5.9375 C-9.32261104 6.98251298 -9.32261104 6.98251298 -11 10 C-12.92547189 12.88820783 -13.81890922 13.86389615 -17 15 C-17 14.01 -17 13.02 -17 12 C-16.01 11.34 -15.02 10.68 -14 10 C-13.67 9.01 -13.34 8.02 -13 7 C-12.34 7 -11.68 7 -11 7 C-10.7525 6.21625 -10.505 5.4325 -10.25 4.625 C-9 2 -9 2 -7.1875 0.6875 C-4.68810383 -0.09802451 -2.60506718 -0.14472595 0 0 Z " fill="#8A30D4" transform="translate(134,158)"/>
<path d="M0 0 C0.99 0.33 1.98 0.66 3 1 C3 1.99 3 2.98 3 4 C3.66 4.33 4.32 4.66 5 5 C4.01 5.495 4.01 5.495 3 6 C2.34 5.67 1.68 5.34 1 5 C1 6.98 1 8.96 1 11 C-0.65 11.33 -2.3 11.66 -4 12 C-3.71640113 10.5608866 -3.42278601 9.12374482 -3.125 7.6875 C-2.96257813 6.88699219 -2.80015625 6.08648437 -2.6328125 5.26171875 C-2 3 -2 3 0 0 Z " fill="#8321DE" transform="translate(33,58)"/>
<path d="M0 0 C0.33 0.66 0.66 1.32 1 2 C0.34 2 -0.32 2 -1 2 C-1 3.32 -1 4.64 -1 6 C-2.99954746 6.04254356 -5.00041636 6.04080783 -7 6 C-7.33 5.67 -7.66 5.34 -8 5 C-9.51928038 4.92820036 -11.04167482 4.91607993 -12.5625 4.9375 C-13.80193359 4.95103516 -13.80193359 4.95103516 -15.06640625 4.96484375 C-16.02353516 4.98224609 -16.02353516 4.98224609 -17 5 C-16.67 4.34 -16.34 3.68 -16 3 C-14.0137698 2.59256816 -12.0079077 2.28181161 -10 2 C-8.20650713 1.65520033 -6.41488673 1.30055504 -4.625 0.9375 C-3.75101563 0.76089844 -2.87703125 0.58429688 -1.9765625 0.40234375 C-1.32429688 0.26957031 -0.67203125 0.13679687 0 0 Z " fill="#8426D8" transform="translate(106,155)"/>
<path d="M0 0 C0.99 0 1.98 0 3 0 C3 0.66 3 1.32 3 2 C3.66 2.33 4.32 2.66 5 3 C3.68 3.33 2.36 3.66 1 4 C1 4.99 1 5.98 1 7 C0.34 7 -0.32 7 -1 7 C-1.33 8.32 -1.66 9.64 -2 11 C-3.32 11.33 -4.64 11.66 -6 12 C-5.1875 9.0625 -5.1875 9.0625 -4 6 C-3.01 5.67 -2.02 5.34 -1 5 C-0.67 3.35 -0.34 1.7 0 0 Z " fill="#801CE2" transform="translate(111,126)"/>
<path d="M0 0 C0.99 0.33 1.98 0.66 3 1 C1.68 1.33 0.36 1.66 -1 2 C-1 2.66 -1 3.32 -1 4 C2.465 3.505 2.465 3.505 6 3 C5.67 3.99 5.34 4.98 5 6 C0.545 6.495 0.545 6.495 -4 7 C-4.33 5.68 -4.66 4.36 -5 3 C-2.6875 1.4375 -2.6875 1.4375 0 0 Z " fill="#872BD7" transform="translate(113,173)"/>
<path d="M0 0 C0.66 0 1.32 0 2 0 C2 1.32 2 2.64 2 4 C2.99 4.66 3.98 5.32 5 6 C4.67 7.32 4.34 8.64 4 10 C3.34 9.67 2.68 9.34 2 9 C1.67 9.66 1.34 10.32 1 11 C0.67 9.35 0.34 7.7 0 6 C-0.33 6.66 -0.66 7.32 -1 8 C-1 7.34 -1 6.68 -1 6 C-1.66 5.67 -2.32 5.34 -3 5 C-1.625 2.5 -1.625 2.5 0 0 Z " fill="#882ED5" transform="translate(53,67)"/>
<path d="M0 0 C2.97 0.33 5.94 0.66 9 1 C9 1.66 9 2.32 9 3 C8.34 3 7.68 3 7 3 C7 3.66 7 4.32 7 5 C6.01 5.33 5.02 5.66 4 6 C1.8125 4.75 1.8125 4.75 0 3 C0 2.01 0 1.02 0 0 Z " fill="#7E1AE3" transform="translate(90,166)"/>
<path d="M0 0 C0.99 0.33 1.98 0.66 3 1 C-2.04140164 3.81532819 -6.22621075 5.5188509 -12 6 C-11.34 5.67 -10.68 5.34 -10 5 C-10.99 4.34 -11.98 3.68 -13 3 C-10.86264735 0.86264735 -6.36198992 1.49004051 -3.46875 1.28125 C-1.0586395 1.26614735 -1.0586395 1.26614735 0 0 Z " fill="#8C3CCA" transform="translate(117,152)"/>
<path d="M0 0 C0.8353125 0.556875 0.8353125 0.556875 1.6875 1.125 C-2.49836481 4.31423033 -5.01808305 5.62923019 -10.3125 5.125 C-7.80776553 1.1701561 -4.84301415 -1.83249184 0 0 Z " fill="#8321DE" transform="translate(116.3125,148.875)"/>
<path d="M0 0 C0.66 0 1.32 0 2 0 C2.66 1.32 3.32 2.64 4 4 C3.34 4 2.68 4 2 4 C2 5.32 2 6.64 2 8 C0.35 8.33 -1.3 8.66 -3 9 C-3.66 8.01 -4.32 7.02 -5 6 C-4.67 5.01 -4.34 4.02 -4 3 C-4 3.66 -4 4.32 -4 5 C-2.02 5.495 -2.02 5.495 0 6 C0 5.34 0 4.68 0 4 C-0.66 3.67 -1.32 3.34 -2 3 C-1.34 2.01 -0.68 1.02 0 0 Z " fill="#7F1AE2" transform="translate(30,27)"/>
<path d="M0 0 C0.8971875 0.309375 0.8971875 0.309375 1.8125 0.625 C1.25 2.5 1.25 2.5 -0.1875 4.625 C-3.5625 5.75 -3.5625 5.75 -7.1875 6.625 C-8.53471283 7.26315344 -9.87200551 7.92378928 -11.1875 8.625 C-10.25475891 7.49605124 -9.31609878 6.37199124 -8.375 5.25 C-7.85292969 4.62351562 -7.33085937 3.99703125 -6.79296875 3.3515625 C-3.17099688 -0.54359946 -3.17099688 -0.54359946 0 0 Z " fill="#8A31CF" transform="translate(35.1875,21.375)"/>
<path d="M0 0 C1.23556641 0.01740234 1.23556641 0.01740234 2.49609375 0.03515625 C3.32238281 0.04417969 4.14867188 0.05320313 5 0.0625 C5.63808594 0.07410156 6.27617188 0.08570312 6.93359375 0.09765625 C6.14984375 0.65453125 5.36609375 1.21140625 4.55859375 1.78515625 C1.84654517 4.1743419 0.97225832 5.69839038 -0.06640625 9.09765625 C-2.64422531 6.51983719 -2.68770241 4.65747235 -3.06640625 1.09765625 C-2.06640625 0.09765625 -2.06640625 0.09765625 0 0 Z " fill="#7D29D0" transform="translate(97.06640625,0.90234375)"/>
<path d="M0 0 C-0.66 1.32 -1.32 2.64 -2 4 C-2.66 4 -3.32 4 -4 4 C-4 4.99 -4 5.98 -4 7 C-6.97 7.66 -9.94 8.32 -13 9 C-13 8.34 -13 7.68 -13 7 C-7.25 4 -7.25 4 -5 4 C-4.67 3.01 -4.34 2.02 -4 1 C-2 0 -2 0 0 0 Z " fill="#7E18E4" transform="translate(121,166)"/>
<path d="M0 0 C0.66 0.33 1.32 0.66 2 1 C1.46884894 5.51478398 -0.36620292 8.34666857 -3 12 C-3.66 11.34 -4.32 10.68 -5 10 C-5 9.01 -5 8.02 -5 7 C-4.34 6.67 -3.68 6.34 -3 6 C-3.33 5.34 -3.66 4.68 -4 4 C-3.01 3.67 -2.02 3.34 -1 3 C-0.67 2.01 -0.34 1.02 0 0 Z " fill="#882DD5" transform="translate(32,40)"/>
<path d="M0 0 C0.66 0 1.32 0 2 0 C2 0.66 2 1.32 2 2 C2.66 2.33 3.32 2.66 4 3 C1.69 4.98 -0.62 6.96 -3 9 C-3.33 7.68 -3.66 6.36 -4 5 C-3.01 4.67 -2.02 4.34 -1 4 C-0.26676204 1.98491642 -0.26676204 1.98491642 0 0 Z " fill="#903EC9" transform="translate(37,34)"/>
<path d="M0 0 C0.99 0.33 1.98 0.66 3 1 C2.67 1.66 2.34 2.32 2 3 C-0.32495277 3.38749213 -2.6599583 3.71758117 -5 4 C-5.99 4.33 -6.98 4.66 -8 5 C-8.33 5.99 -8.66 6.98 -9 8 C-9.66 7.34 -10.32 6.68 -11 6 C-10.34 6 -9.68 6 -9 6 C-9 4.68 -9 3.36 -9 2 C-6.94921875 1.77213542 -4.8984375 1.54427083 -2.84765625 1.31640625 C-0.98859771 1.18113386 -0.98859771 1.18113386 0 0 Z " fill="#7404F0" transform="translate(82,168)"/>
<path d="M0 0 C0 0.99 0 1.98 0 3 C-2.75 5.25 -2.75 5.25 -6 7 C-8.375 6.75 -8.375 6.75 -10 6 C-3.71428571 0.42857143 -3.71428571 0.42857143 0 0 Z " fill="#7B15E7" transform="translate(131,143)"/>
<path d="M0 0 C1.02480469 0.00644531 2.04960938 0.01289063 3.10546875 0.01953125 C4.16894531 0.03628906 5.23242188 0.05304687 6.328125 0.0703125 C7.94654297 0.08384766 7.94654297 0.08384766 9.59765625 0.09765625 C12.25803778 0.12119945 14.91796836 0.15408451 17.578125 0.1953125 C17.578125 0.5253125 17.578125 0.8553125 17.578125 1.1953125 C4.213125 1.6903125 4.213125 1.6903125 -9.421875 2.1953125 C-5.50967731 0.23921365 -4.16905324 -0.04632281 0 0 Z " fill="#7021D2" transform="translate(84.421875,21.8046875)"/>
<path d="M0 0 C-0.33 1.65 -0.66 3.3 -1 5 C-2.65 5 -4.3 5 -6 5 C-6.33 3.68 -6.66 2.36 -7 1 C-3.375 -1.125 -3.375 -1.125 0 0 Z " fill="#7C14E7" transform="translate(84,176)"/>
<path d="M0 0 C0.66 0.33 1.32 0.66 2 1 C-1.07999946 4.67230705 -3.2482602 5.56802365 -8 6 C-7 3 -7 3 -3.5625 1.25 C-2.386875 0.8375 -1.21125 0.425 0 0 Z " fill="#770CEC" transform="translate(96,177)"/>
<path d="M0 0 C-0.5775 0.268125 -1.155 0.53625 -1.75 0.8125 C-4.0325868 2.01719859 -5.9737942 3.40798115 -8 5 C-8 4.34 -8 3.68 -8 3 C-8.66 3 -9.32 3 -10 3 C-10 3.66 -10 4.32 -10 5 C-10.66 4.67 -11.32 4.34 -12 4 C-8.41084094 -0.78554541 -5.58334594 -0.37222306 0 0 Z " fill="#7D16E5" transform="translate(85,171)"/>
<path d="M0 0 C1.32 0.66 2.64 1.32 4 2 C4 2.66 4 3.32 4 4 C1 6 1 6 -2 6 C-2 4.68 -2 3.36 -2 2 C-1.34 2 -0.68 2 0 2 C0 1.34 0 0.68 0 0 Z " fill="#8627DA" transform="translate(112,166)"/>
<path d="M0 0 C1.32 0 2.64 0 4 0 C3.8125 1.8125 3.8125 1.8125 3 4 C0.4375 5.75 0.4375 5.75 -2 7 C-1.125 2.25 -1.125 2.25 0 0 Z " fill="#770CED" transform="translate(105,145)"/>
<path d="M0 0 C0.99 0.33 1.98 0.66 3 1 C3 1.99 3 2.98 3 4 C3.66 4.33 4.32 4.66 5 5 C2.53721199 6.231394 0.7204945 6.07159196 -2 6 C-1.49396008 3.83125748 -1.00016187 2.00032373 0 0 Z " fill="#862AD7" transform="translate(33,58)"/>
<path d="M0 0 C2.475 0.495 2.475 0.495 5 1 C6.125 4.75 6.125 4.75 5 7 C3 6 3 6 2 3 C1.34 2.67 0.68 2.34 0 2 C0 1.34 0 0.68 0 0 Z " fill="#7C11E9" transform="translate(50,79)"/>
<path d="M0 0 C6.93 0 13.86 0 21 0 C21 0.33 21 0.66 21 1 C14.07 1 7.14 1 0 1 C0 0.67 0 0.34 0 0 Z " fill="#6744B9" transform="translate(81,164)"/>
<path d="M0 0 C6.27 0 12.54 0 19 0 C19 0.33 19 0.66 19 1 C12.60624381 2.59843905 6.40654045 2.28130809 0 1 C0 0.67 0 0.34 0 0 Z " fill="#7515D9" transform="translate(84,140)"/>
<path d="M0 0 C1.32 0.33 2.64 0.66 4 1 C4 1.66 4 2.32 4 3 C1.69 3.33 -0.62 3.66 -3 4 C-2.01 2.68 -1.02 1.36 0 0 Z " fill="#8E37CF" transform="translate(97,178)"/>
<path d="M0 0 C0.33 0.66 0.66 1.32 1 2 C-0.4375 4.625 -0.4375 4.625 -2 7 C-3.32 6.67 -4.64 6.34 -6 6 C-2.25 1.125 -2.25 1.125 0 0 Z " fill="#8A33D1" transform="translate(155,135)"/>
<path d="M0 0 C0.33 0 0.66 0 1 0 C1.33 6.27 1.66 12.54 2 19 C-0.12401038 14.75197923 -0.2376107 11.83238937 -0.125 7.25 C-0.11597656 6.55261719 -0.10695312 5.85523437 -0.09765625 5.13671875 C-0.07419888 3.42433042 -0.03833104 1.71211996 0 0 Z " fill="#6D2ECB" transform="translate(56,84)"/>
<path d="M0 0 C0.33 0 0.66 0 1 0 C1 6.6 1 13.2 1 20 C0.67 20 0.34 20 0 20 C0 13.4 0 6.8 0 0 Z " fill="#7E04F7" transform="translate(19,81)"/>
<path d="M0 0 C0 0.66 0 1.32 0 2 C-2.90548882 4.04169485 -4.40142046 5 -8 5 C-8 4.01 -8 3.02 -8 2 C-4.91190305 0.23537317 -3.76687864 0 0 0 Z " fill="#8A30D3" transform="translate(66,30)"/>
<path d="M0 0 C0.66 0 1.32 0 2 0 C0.55746343 3.36591866 -1.33264727 5.51047079 -4 8 C-4.66 7.67 -5.32 7.34 -6 7 C-5.04882866 5.8274869 -4.08882991 4.66212985 -3.125 3.5 C-2.59132812 2.8503125 -2.05765625 2.200625 -1.5078125 1.53125 C-0.76144531 0.77328125 -0.76144531 0.77328125 0 0 Z " fill="#8B33D3" transform="translate(55,34)"/>
<path d="M0 0 C-2.97 2.475 -2.97 2.475 -6 5 C-6.33 4.34 -6.66 3.68 -7 3 C-6.34 3 -5.68 3 -5 3 C-5 2.34 -5 1.68 -5 1 C-5.99 0.67 -6.98 0.34 -8 0 C-2.25 -1.125 -2.25 -1.125 0 0 Z " fill="#8525DD" transform="translate(104,166)"/>
<path d="M0 0 C2 2 2 2 2.1953125 3.9453125 C2.13020833 5.96354167 2.06510417 7.98177083 2 10 C1.01 9.34 0.02 8.68 -1 8 C-0.67 5.36 -0.34 2.72 0 0 Z " fill="#7C14E6" transform="translate(35,71)"/>
<path d="M0 0 C0.33 0 0.66 0 1 0 C1 5.61 1 11.22 1 17 C0.67 17 0.34 17 0 17 C0 11.39 0 5.78 0 0 Z " fill="#7220D6" transform="translate(129,84)"/>
<path d="M0 0 C0.33 0 0.66 0 1 0 C1 5.61 1 11.22 1 17 C0.67 17 0.34 17 0 17 C0 11.39 0 5.78 0 0 Z " fill="#782CCF" transform="translate(23,83)"/>
<path d="M0 0 C0.33 0 0.66 0 1 0 C1 4.62 1 9.24 1 14 C0.67 14 0.34 14 0 14 C0 9.38 0 4.76 0 0 Z " fill="#7D00ED" transform="translate(161,80)"/>
<path d="M0 0 C-3.90028225 2.60018816 -7.47434569 2.15085514 -12 2 C-12 1.67 -12 1.34 -12 1 C-7.95858806 0.36605303 -4.0934693 -0.12404452 0 0 Z " fill="#7128CD" transform="translate(112,181)"/>
<path d="M0 0 C0.33 0 0.66 0 1 0 C1.08159574 4.16138263 0.98248524 7.9472484 0 12 C-0.33 12 -0.66 12 -1 12 C-0.67 8.04 -0.34 4.08 0 0 Z " fill="#7A10E1" transform="translate(141,91)"/>
<path d="M0 0 C0.33 0 0.66 0 1 0 C1 4.29 1 8.58 1 13 C0.67 13 0.34 13 0 13 C0 8.71 0 4.42 0 0 Z " fill="#7E00F3" transform="translate(44,89)"/>
<path d="M0 0 C0.33 0 0.66 0 1 0 C1 3.96 1 7.92 1 12 C0.67 12 0.34 12 0 12 C0 8.04 0 4.08 0 0 Z " fill="#723BC3" transform="translate(37,86)"/>
<path d="M0 0 C0 0.33 0 0.66 0 1 C-3.63 1.33 -7.26 1.66 -11 2 C-6.78370866 -0.10814567 -4.60209225 -0.17700355 0 0 Z " fill="#731FD3" transform="translate(88,37)"/>
<path d="M0 0 C0.33 0 0.66 0 1 0 C1 3.63 1 7.26 1 11 C0.67 11 0.34 11 0 11 C0 7.37 0 3.74 0 0 Z " fill="#7F00F6" transform="translate(166,84)"/>
<path d="M0 0 C1.2380014 3.57644848 0.74926071 6.33694766 0 10 C-0.33 10 -0.66 10 -1 10 C-1.125 3.375 -1.125 3.375 0 0 Z " fill="#7327D1" transform="translate(46,78)"/>
<path d="M0 0 C0.33 0 0.66 0 1 0 C1 3.3 1 6.6 1 10 C0.67 10 0.34 10 0 10 C0 6.7 0 3.4 0 0 Z " fill="#7D00ED" transform="translate(145,83)"/>
<path d="M0 0 C2.97 0 5.94 0 9 0 C9 0.33 9 0.66 9 1 C6.03 1 3.06 1 0 1 C0 0.67 0 0.34 0 0 Z " fill="#7B00E1" transform="translate(88,161)"/>
<path d="M0 0 C0.66 0.33 1.32 0.66 2 1 C0.35 2.32 -1.3 3.64 -3 5 C-1.125 1.125 -1.125 1.125 0 0 Z " fill="#7D00EE" transform="translate(55,50)"/>
<path d="M0 0 C2.97 0 5.94 0 9 0 C9 0.33 9 0.66 9 1 C6.03 1 3.06 1 0 1 C0 0.67 0 0.34 0 0 Z " fill="#7130CB" transform="translate(88,36)"/>
<path d="M0 0 C2.64 0 5.28 0 8 0 C8 0.33 8 0.66 8 1 C5.36 1 2.72 1 0 1 C0 0.67 0 0.34 0 0 Z " fill="#7315DF" transform="translate(74,182)"/>
<path d="M0 0 C2.64 0 5.28 0 8 0 C8 0.33 8 0.66 8 1 C5.36 1 2.72 1 0 1 C0 0.67 0 0.34 0 0 Z " fill="#7E00F0" transform="translate(83,127)"/>
<path d="M0 0 C2.64 0 5.28 0 8 0 C8 0.33 8 0.66 8 1 C5.36 1 2.72 1 0 1 C0 0.67 0 0.34 0 0 Z " fill="#7C00E8" transform="translate(88,42)"/>
<path d="M0 0 C0.66 0.33 1.32 0.66 2 1 C1.01 1.99 0.02 2.98 -1 4 C-1.66 3.67 -2.32 3.34 -3 3 C-2.01 2.01 -1.02 1.02 0 0 Z " fill="#7612D6" transform="translate(47,38)"/>
<path d="M0 0 C2.31 0 4.62 0 7 0 C7 0.33 7 0.66 7 1 C4.69 1 2.38 1 0 1 C0 0.67 0 0.34 0 0 Z " fill="#7B00E1" transform="translate(89,145)"/>
<path d="M0 0 C0.99 0.33 1.98 0.66 3 1 C1.02 1.33 -0.96 1.66 -3 2 C-2.01 1.34 -1.02 0.68 0 0 Z " fill="#7F1ADB" transform="translate(107,138)"/>
<path d="M0 0 C2.31 0 4.62 0 7 0 C7 0.33 7 0.66 7 1 C4.69 1 2.38 1 0 1 C0 0.67 0 0.34 0 0 Z " fill="#7D00ED" transform="translate(96,127)"/>
<path d="M0 0 C0.625 1.875 0.625 1.875 1 4 C0.34 4.66 -0.32 5.32 -1 6 C-0.67 4.02 -0.34 2.04 0 0 Z " fill="#7F1ADB" transform="translate(139,103)"/>
<path d="M0 0 C0.33 0 0.66 0 1 0 C1 2.31 1 4.62 1 7 C0.67 7 0.34 7 0 7 C0 4.69 0 2.38 0 0 Z " fill="#780CE6" transform="translate(165,97)"/>
<path d="M0 0 C0.33 0 0.66 0 1 0 C1 2.31 1 4.62 1 7 C0.67 7 0.34 7 0 7 C0 4.69 0 2.38 0 0 Z " fill="#780CE6" transform="translate(165,76)"/>
<path d="M0 0 C0.33 0 0.66 0 1 0 C1 2.31 1 4.62 1 7 C0.67 7 0.34 7 0 7 C0 4.69 0 2.38 0 0 Z " fill="#780CE6" transform="translate(141,81)"/>
<path d="M0 0 C0.66 0.66 1.32 1.32 2 2 C1.625 4.125 1.625 4.125 1 6 C0.67 4.02 0.34 2.04 0 0 Z " fill="#7129C8" transform="translate(127,78)"/>
<path d="M0 0 C2.31 0 4.62 0 7 0 C7 0.33 7 0.66 7 1 C4.69 1 2.38 1 0 1 C0 0.67 0 0.34 0 0 Z " fill="#7229CC" transform="translate(96,43)"/>
<path d="M0 0 C2.125 0.375 2.125 0.375 4 1 C2.02 1.33 0.04 1.66 -2 2 C-1.34 1.34 -0.68 0.68 0 0 Z " fill="#781DD8" transform="translate(71,24)"/>
<path d="M0 0 C1.98 0 3.96 0 6 0 C6 0.33 6 0.66 6 1 C4.02 1 2.04 1 0 1 C0 0.67 0 0.34 0 0 Z " fill="#7822D7" transform="translate(102,163)"/>
<path d="M0 0 C1.98 0 3.96 0 6 0 C6 0.33 6 0.66 6 1 C4.02 1 2.04 1 0 1 C0 0.67 0 0.34 0 0 Z " fill="#7D00EB" transform="translate(98,144)"/>
<path d="M0 0 C1.98 0 3.96 0 6 0 C6 0.33 6 0.66 6 1 C4.02 1 2.04 1 0 1 C0 0.67 0 0.34 0 0 Z " fill="#7D00EB" transform="translate(80,144)"/>
<path d="M0 0 C0.33 0 0.66 0 1 0 C1 1.98 1 3.96 1 6 C0.67 6 0.34 6 0 6 C0 4.02 0 2.04 0 0 Z " fill="#770EE7" transform="translate(20,101)"/>
<path d="M0 0 C0.33 0 0.66 0 1 0 C1 1.98 1 3.96 1 6 C0.67 6 0.34 6 0 6 C0 4.02 0 2.04 0 0 Z " fill="#6138BD" transform="translate(24,100)"/>
<path d="M0 0 C0.33 0 0.66 0 1 0 C1 1.98 1 3.96 1 6 C0.67 6 0.34 6 0 6 C0 4.02 0 2.04 0 0 Z " fill="#7026CE" transform="translate(38,98)"/>
<path d="M0 0 C0.33 0 0.66 0 1 0 C1 1.98 1 3.96 1 6 C0.67 6 0.34 6 0 6 C0 4.02 0 2.04 0 0 Z " fill="#7718DC" transform="translate(38,80)"/>
<path d="M0 0 C0.33 0 0.66 0 1 0 C1 1.98 1 3.96 1 6 C0.67 6 0.34 6 0 6 C0 4.02 0 2.04 0 0 Z " fill="#7026CE" transform="translate(24,77)"/>
<path d="M0 0 C0.33 0 0.66 0 1 0 C1 1.98 1 3.96 1 6 C0.67 6 0.34 6 0 6 C0 4.02 0 2.04 0 0 Z " fill="#760EE2" transform="translate(20,75)"/>
<path d="M0 0 C1.98 0 3.96 0 6 0 C6 0.33 6 0.66 6 1 C4.02 1 2.04 1 0 1 C0 0.67 0 0.34 0 0 Z " fill="#7E00F0" transform="translate(98,56)"/>
<path d="M0 0 C0 0.99 0 1.98 0 3 C-0.99 3.495 -0.99 3.495 -2 4 C-1.34 2.68 -0.68 1.36 0 0 Z " fill="#760EE2" transform="translate(43,42)"/>
<path d="M0 0 C1.98 0 3.96 0 6 0 C6 0.33 6 0.66 6 1 C4.02 1 2.04 1 0 1 C0 0.67 0 0.34 0 0 Z " fill="#7822D7" transform="translate(82,43)"/>
<path d="M0 0 C0.99 0.33 1.98 0.66 3 1 C1.35 1.33 -0.3 1.66 -2 2 C-1.34 1.34 -0.68 0.68 0 0 Z " fill="#7026CE" transform="translate(71,40)"/>
<path d="M0 0 C1.98 0.99 1.98 0.99 4 2 C3.01 2 2.02 2 1 2 C0.67 1.34 0.34 0.68 0 0 Z " fill="#7B00E1" transform="translate(155,22)"/>
<path d="M0 0 C1.98 0 3.96 0 6 0 C6 0.33 6 0.66 6 1 C4.02 1 2.04 1 0 1 C0 0.67 0 0.34 0 0 Z " fill="#7818E1" transform="translate(104,17)"/>
<path d="M0 0 C1.65 0 3.3 0 5 0 C5 0.33 5 0.66 5 1 C3.35 1 1.7 1 0 1 C0 0.67 0 0.34 0 0 Z " fill="#6C21D1" transform="translate(113,180)"/>
<path d="M0 0 C1.65 0 3.3 0 5 0 C5 0.33 5 0.66 5 1 C3.35 1 1.7 1 0 1 C0 0.67 0 0.34 0 0 Z " fill="#7629CF" transform="translate(76,163)"/>
<path d="M0 0 C1.65 0 3.3 0 5 0 C5 0.33 5 0.66 5 1 C3.35 1 1.7 1 0 1 C0 0.67 0 0.34 0 0 Z " fill="#7D00ED" transform="translate(81,160)"/>
<path d="M0 0 C1.65 0 3.3 0 5 0 C5 0.33 5 0.66 5 1 C3.35 1 1.7 1 0 1 C0 0.67 0 0.34 0 0 Z " fill="#7D0CE0" transform="translate(117,159)"/>
<path d="M0 0 C1.65 0 3.3 0 5 0 C5 0.33 5 0.66 5 1 C3.35 1 1.7 1 0 1 C0 0.67 0 0.34 0 0 Z " fill="#751DD5" transform="translate(79,139)"/>
<path d="M0 0 C0.33 0 0.66 0 1 0 C1 1.65 1 3.3 1 5 C0.67 5 0.34 5 0 5 C0 3.35 0 1.7 0 0 Z " fill="#7510E2" transform="translate(164,104)"/>
<path d="M0 0 C0.33 0 0.66 0 1 0 C1 1.65 1 3.3 1 5 C0.67 5 0.34 5 0 5 C0 3.35 0 1.7 0 0 Z " fill="#7510E2" transform="translate(184,102)"/>
<path d="M0 0 C0.33 0 0.66 0 1 0 C1 1.65 1 3.3 1 5 C0.67 5 0.34 5 0 5 C0 3.35 0 1.7 0 0 Z " fill="#7510E2" transform="translate(184,76)"/>
<path d="M0 0 C0.33 0 0.66 0 1 0 C1 1.65 1 3.3 1 5 C0.67 5 0.34 5 0 5 C0 3.35 0 1.7 0 0 Z " fill="#7510E2" transform="translate(164,71)"/>
<path d="M0 0 C0.33 0 0.66 0 1 0 C1 1.65 1 3.3 1 5 C0.67 5 0.34 5 0 5 C0 3.35 0 1.7 0 0 Z " fill="#7E00F3" transform="translate(0,71)"/>
<path d="M0 0 C0.33 0.66 0.66 1.32 1 2 C0.34 2.66 -0.32 3.32 -1 4 C-0.67 2.68 -0.34 1.36 0 0 Z " fill="#7D18D3" transform="translate(62,70)"/>
<path d="M0 0 C1.65 0 3.3 0 5 0 C5 0.33 5 0.66 5 1 C3.35 1 1.7 1 0 1 C0 0.67 0 0.34 0 0 Z " fill="#7E00F3" transform="translate(83,56)"/>
<path d="M0 0 C1.65 0 3.3 0 5 0 C5 0.33 5 0.66 5 1 C3.35 1 1.7 1 0 1 C0 0.67 0 0.34 0 0 Z " fill="#7E00F3" transform="translate(97,37)"/>
<path d="M0 0 C1.32 0.33 2.64 0.66 4 1 C3.01 1.495 3.01 1.495 2 2 C1.34 1.34 0.68 0.68 0 0 Z " fill="#7510E2" transform="translate(122,29)"/>
<path d="M0 0 C1.65 0 3.3 0 5 0 C5 0.33 5 0.66 5 1 C3.35 1 1.7 1 0 1 C0 0.67 0 0.34 0 0 Z " fill="#6C21D1" transform="translate(107,24)"/>
<path d="M0 0 C1.65 0 3.3 0 5 0 C5 0.33 5 0.66 5 1 C3.35 1 1.7 1 0 1 C0 0.67 0 0.34 0 0 Z " fill="#6432C7" transform="translate(102,23)"/>
<path d="M0 0 C1.65 0 3.3 0 5 0 C5 0.33 5 0.66 5 1 C3.35 1 1.7 1 0 1 C0 0.67 0 0.34 0 0 Z " fill="#6C21D1" transform="translate(111,1)"/>
<path d="M0 0 C4 1 4 1 4 1 Z " fill="#7F00F7" transform="translate(70,181)"/>
<path d="M0 0 C4 1 4 1 4 1 Z " fill="#7215DB" transform="translate(66,180)"/>
<path d="M0 0 C0.66 0.33 1.32 0.66 2 1 C1.01 1 0.02 1 -1 1 C-0.67 0.67 -0.34 0.34 0 0 Z " fill="#7224CB" transform="translate(143,166)"/>
<path d="M0 0 C0.99 0.33 1.98 0.66 3 1 C2.01 1 1.02 1 0 1 C0 0.67 0 0.34 0 0 Z " fill="#7E0FE0" transform="translate(34,163)"/>
<path d="M0 0 C4 1 4 1 4 1 Z " fill="#7415E2" transform="translate(108,162)"/>
<path d="M0 0 C4 1 4 1 4 1 Z " fill="#7424D3" transform="translate(72,162)"/>
<path d="M0 0 C4 1 4 1 4 1 Z " fill="#7424D3" transform="translate(68,161)"/>
<path d="M0 0 C4 1 4 1 4 1 Z " fill="#7E00F0" transform="translate(77,159)"/>
<path d="M0 0 C0.66 0.33 1.32 0.66 2 1 C1.01 1 0.02 1 -1 1 C-0.67 0.67 -0.34 0.34 0 0 Z " fill="#7E0FE0" transform="translate(136,150)"/>
<path d="M0 0 C0.99 0.495 0.99 0.495 2 1 C1.67 1.66 1.34 2.32 1 3 C0.67 2.01 0.34 1.02 0 0 Z " fill="#7E00F0" transform="translate(21,149)"/>
<path d="M0 0 C0.99 0.33 1.98 0.66 3 1 C2.01 1 1.02 1 0 1 C0 0.67 0 0.34 0 0 Z " fill="#7E0FE0" transform="translate(44,148)"/>
<path d="M0 0 C4 1 4 1 4 1 Z " fill="#7C00E8" transform="translate(105,143)"/>
<path d="M0 0 C4 1 4 1 4 1 Z " fill="#7E00F0" transform="translate(75,143)"/>
<path d="M0 0 C0.99 0.495 0.99 0.495 2 1 C1.67 1.66 1.34 2.32 1 3 C0.67 2.01 0.34 1.02 0 0 Z " fill="#7215DB" transform="translate(13,138)"/>
<path d="M0 0 C0 3 0 3 0 3 Z " fill="#7224CB" transform="translate(171,137)"/>
<path d="M0 0 C0 3 0 3 0 3 Z " fill="#7F0FE7" transform="translate(151,136)"/>
<path d="M0 0 C0.99 0.33 1.98 0.66 3 1 C2.01 1 1.02 1 0 1 C0 0.67 0 0.34 0 0 Z " fill="#7115D3" transform="translate(58,134)"/>
<path d="M0 0 C0.99 0.33 1.98 0.66 3 1 C2.01 1 1.02 1 0 1 C0 0.67 0 0.34 0 0 Z " fill="#7215DB" transform="translate(62,130)"/>
<path d="M0 0 C4 1 4 1 4 1 Z " fill="#7E00F0" transform="translate(79,126)"/>
<path d="M0 0 C0 3 0 3 0 3 Z " fill="#7F0FE7" transform="translate(132,119)"/>
<path d="M0 0 C0.66 0.33 1.32 0.66 2 1 C1.01 1 0.02 1 -1 1 C-0.67 0.67 -0.34 0.34 0 0 Z " fill="#7F0FE7" transform="translate(116,120)"/>
<path d="M0 0 C0.99 0.33 1.98 0.66 3 1 C2.01 1 1.02 1 0 1 C0 0.67 0 0.34 0 0 Z " fill="#7215DB" transform="translate(69,120)"/>
<path d="M0 0 C0 3 0 3 0 3 Z " fill="#7F0FE7" transform="translate(122,114)"/>
<path d="M0 0 C1 4 1 4 1 4 Z " fill="#7E00F0" transform="translate(1,110)"/>
<path d="M0 0 C1 4 1 4 1 4 Z " fill="#7415E2" transform="translate(183,108)"/>
<path d="M0 0 C1 4 1 4 1 4 Z " fill="#7E00F0" transform="translate(163,109)"/>
<path d="M0 0 C1 4 1 4 1 4 Z " fill="#7424D3" transform="translate(25,106)"/>
<path d="M0 0 C1 4 1 4 1 4 Z " fill="#7E00F0" transform="translate(21,108)"/>
<path d="M0 0 C1 4 1 4 1 4 Z " fill="#7F00F7" transform="translate(0,105)"/>
<path d="M0 0 C1 4 1 4 1 4 Z " fill="#672AC6" transform="translate(39,104)"/>
<path d="M0 0 C1 4 1 4 1 4 Z " fill="#7424D3" transform="translate(57,80)"/>
<path d="M0 0 C1 4 1 4 1 4 Z " fill="#7F00F7" transform="translate(144,78)"/>
<path d="M0 0 C1 4 1 4 1 4 Z " fill="#7F00F7" transform="translate(160,75)"/>
<path d="M0 0 C1 4 1 4 1 4 Z " fill="#692ACE" transform="translate(39,76)"/>
<path d="M0 0 C1 4 1 4 1 4 Z " fill="#7424D3" transform="translate(25,73)"/>
<path d="M0 0 C1 4 1 4 1 4 Z " fill="#7E00F0" transform="translate(143,74)"/>
<path d="M0 0 C1 4 1 4 1 4 Z " fill="#7F00F7" transform="translate(183,71)"/>
<path d="M0 0 C1 4 1 4 1 4 Z " fill="#7E00F0" transform="translate(159,71)"/>
<path d="M0 0 C1 4 1 4 1 4 Z " fill="#7E00F0" transform="translate(21,71)"/>
<path d="M0 0 C0.66 0.33 1.32 0.66 2 1 C1.01 1 0.02 1 -1 1 C-0.67 0.67 -0.34 0.34 0 0 Z " fill="#7424D3" transform="translate(69,62)"/>
<path d="M0 0 C0.99 0.33 1.98 0.66 3 1 C2.01 1 1.02 1 0 1 C0 0.67 0 0.34 0 0 Z " fill="#672AC6" transform="translate(113,61)"/>
<path d="M0 0 C4 1 4 1 4 1 Z " fill="#7215DB" transform="translate(79,57)"/>
<path d="M0 0 C0 3 0 3 0 3 Z " fill="#7F0FE7" transform="translate(37,49)"/>
<path d="M0 0 C0.99 0.33 1.98 0.66 3 1 C2.01 1 1.02 1 0 1 C0 0.67 0 0.34 0 0 Z " fill="#7215DB" transform="translate(120,45)"/>
<path d="M0 0 C4 1 4 1 4 1 Z " fill="#692ACE" transform="translate(103,44)"/>
<path d="M0 0 C0 3 0 3 0 3 Z " fill="#7B00E1" transform="translate(36,42)"/>
<path d="M0 0 C4 1 4 1 4 1 Z " fill="#7415E2" transform="translate(102,38)"/>
<path d="M0 0 C0.99 0.495 0.99 0.495 2 1 C1.67 1.66 1.34 2.32 1 3 C0.67 2.01 0.34 1.02 0 0 Z " fill="#7B00E1" transform="translate(159,25)"/>
<path d="M0 0 C4 1 4 1 4 1 Z " fill="#7415E2" transform="translate(110,18)"/>
<path d="M0 0 C4 1 4 1 4 1 Z " fill="#7E00F0" transform="translate(100,16)"/>
<path d="M0 0 C4 1 4 1 4 1 Z " fill="#7B00E1" transform="translate(120,3)"/>
<path d="M0 0 C4 1 4 1 4 1 Z " fill="#7C00E8" transform="translate(116,2)"/>
<path d="M0 0 C4 1 4 1 4 1 Z " fill="#692ACE" transform="translate(106,0)"/>
<path d="M0 0 C3 1 3 1 3 1 Z " fill="#7D00EB" transform="translate(118,179)"/>
<path d="M0 0 C3 1 3 1 3 1 Z " fill="#7D00EB" transform="translate(63,179)"/>
<path d="M0 0 C3 1 3 1 3 1 Z " fill="#7D00EB" transform="translate(60,178)"/>
<path d="M0 0 C3 1 3 1 3 1 Z " fill="#7D00EB" transform="translate(114,160)"/>
<path d="M0 0 C3 1 3 1 3 1 Z " fill="#7D00EB" transform="translate(105,159)"/>
<path d="M0 0 C3 1 3 1 3 1 Z " fill="#7030C4" transform="translate(63,159)"/>
<path d="M0 0 C3 1 3 1 3 1 Z " fill="#7B00E1" transform="translate(109,158)"/>
<path d="M0 0 C3 1 3 1 3 1 Z " fill="#7F14E0" transform="translate(58,157)"/>
<path d="M0 0 C3 1 3 1 3 1 Z " fill="#7D00EB" transform="translate(109,142)"/>
<path d="M0 0 C3 1 3 1 3 1 Z " fill="#7F00F5" transform="translate(72,142)"/>
<path d="M0 0 C3 1 3 1 3 1 Z " fill="#7F00F5" transform="translate(69,141)"/>
<path d="M0 0 C3 1 3 1 3 1 Z " fill="#6138BD" transform="translate(76,138)"/>
<path d="M0 0 C3 1 3 1 3 1 Z " fill="#7B00E1" transform="translate(92,128)"/>
<path d="" fill="#7D00EB" transform="translate(0,0)"/>
<path d="M0 0 C3 1 3 1 3 1 Z " fill="#7F00F5" transform="translate(104,126)"/>
<path d="M0 0 C3 1 3 1 3 1 Z " fill="#6138BD" transform="translate(107,125)"/>
<path d="" fill="#7D00EB" transform="translate(0,0)"/>
<path d="" fill="#7D00EB" transform="translate(0,0)"/>
<path d="" fill="#7F00F5" transform="translate(0,0)"/>
<path d="" fill="#7F00F5" transform="translate(0,0)"/>
<path d="" fill="#7F00F5" transform="translate(0,0)"/>
<path d="" fill="#7F00F5" transform="translate(0,0)"/>
<path d="" fill="#7F00F5" transform="translate(0,0)"/>
<path d="" fill="#701CD9" transform="translate(0,0)"/>
<path d="" fill="#7F00F5" transform="translate(0,0)"/>
<path d="" fill="#7F00F5" transform="translate(0,0)"/>
<path d="" fill="#701CD9" transform="translate(0,0)"/>
<path d="" fill="#7F00F5" transform="translate(0,0)"/>
<path d="" fill="#6E1CCF" transform="translate(0,0)"/>
<path d="" fill="#721CE3" transform="translate(0,0)"/>
<path d="" fill="#8114EA" transform="translate(0,0)"/>
<path d="" fill="#7F00F5" transform="translate(0,0)"/>
<path d="" fill="#701CD9" transform="translate(0,0)"/>
<path d="" fill="#6E1CCF" transform="translate(0,0)"/>
<path d="" fill="#7030C4" transform="translate(0,0)"/>
<path d="" fill="#701CD9" transform="translate(0,0)"/>
<path d="" fill="#7F00F5" transform="translate(0,0)"/>
<path d="" fill="#7030C4" transform="translate(0,0)"/>
<path d="" fill="#7B00E1" transform="translate(0,0)"/>
<path d="" fill="#7F00F5" transform="translate(0,0)"/>
<path d="" fill="#7F14E0" transform="translate(0,0)"/>
<path d="" fill="#7230CE" transform="translate(0,0)"/>
<path d="" fill="#7F00F5" transform="translate(0,0)"/>
<path d="" fill="#6138BD" transform="translate(0,0)"/>
<path d="" fill="#6138BD" transform="translate(0,0)"/>
<path d="" fill="#7D00EB" transform="translate(0,0)"/>
<path d="" fill="#8114EA" transform="translate(0,0)"/>
<path d="" fill="#6138BD" transform="translate(0,0)"/>
<path d="" fill="#7F00F5" transform="translate(0,0)"/>
<path d="" fill="#7F00F5" transform="translate(0,0)"/>
<path d="" fill="#7F00F5" transform="translate(0,0)"/>
<path d="" fill="#721CE3" transform="translate(0,0)"/>
<path d="" fill="#6138BD" transform="translate(0,0)"/>
<path d="" fill="#7F00F5" transform="translate(0,0)"/>
<path d="" fill="#7F00F5" transform="translate(0,0)"/>
<path d="" fill="#6138BD" transform="translate(0,0)"/>
<path d="" fill="#7F00F5" transform="translate(0,0)"/>
<path d="" fill="#7D00EB" transform="translate(0,0)"/>
<path d="" fill="#701CD9" transform="translate(0,0)"/>
<path d="" fill="#7F00F5" transform="translate(0,0)"/>
<path d="" fill="#701CD9" transform="translate(0,0)"/>
<path d="M0 0 C3 1 3 1 3 1 Z " fill="#701CD9" transform="translate(76,58)"/>
<path d="" fill="#701CD9" transform="translate(0,0)"/>
<path d="M0 0 C3 1 3 1 3 1 Z " fill="#701CD9" transform="translate(104,57)"/>
<path d="" fill="#7D00EB" transform="translate(0,0)"/>
<path d="M0 0 C3 1 3 1 3 1 Z " fill="#7230CE" transform="translate(107,45)"/>
<path d="M0 0 C3 1 3 1 3 1 Z " fill="#8114EA" transform="translate(76,45)"/>
<path d="M0 0 C3 1 3 1 3 1 Z " fill="#7230CE" transform="translate(79,44)"/>
<path d="M0 0 C3 1 3 1 3 1 Z " fill="#701CD9" transform="translate(109,40)"/>
<path d="M0 0 C3 1 3 1 3 1 Z " fill="#701CD9" transform="translate(106,39)"/>
<path d="M0 0 C3 1 3 1 3 1 Z " fill="#7230CE" transform="translate(74,39)"/>
<path d="M0 0 C3 1 3 1 3 1 Z " fill="#701CD9" transform="translate(115,26)"/>
<path d="M0 0 C3 1 3 1 3 1 Z " fill="#701CD9" transform="translate(66,26)"/>
<path d="M0 0 C3 1 3 1 3 1 Z " fill="#6138BD" transform="translate(112,25)"/>
<path d="M0 0 C3 1 3 1 3 1 Z " fill="#6E1CCF" transform="translate(114,19)"/>
<path d="M0 0 C3 1 3 1 3 1 Z " fill="#7B00E1" transform="translate(124,4)"/>
<path d="M0 0 C2 1 2 1 2 1 Z " fill="#7E00F0" transform="translate(123,177)"/>
<path d="M0 0 C2 1 2 1 2 1 Z " fill="#8100FF" transform="translate(58,177)"/>
<path d="M0 0 C2 1 2 1 2 1 Z " fill="#8100FF" transform="translate(125,176)"/>
<path d="M0 0 C2 1 2 1 2 1 Z " fill="#6A2AD5" transform="translate(55,176)"/>
<path d="M0 0 C2 1 2 1 2 1 Z " fill="#5454AC" transform="translate(127,175)"/>
<path d="M0 0 C2 1 2 1 2 1 Z " fill="#6A2AD5" transform="translate(53,175)"/>
<path d="M0 0 C2 1 2 1 2 1 Z " fill="#6A2AD5" transform="translate(129,174)"/>
<path d="M0 0 C2 1 2 1 2 1 Z " fill="#6A2AD5" transform="translate(51,174)"/>
<path d="M0 0 C2 1 2 1 2 1 Z " fill="#672AC6" transform="translate(131,173)"/>
<path d="M0 0 C2 1 2 1 2 1 Z " fill="#6A2AD5" transform="translate(49,173)"/>
<path d="M0 0 C2 1 2 1 2 1 Z " fill="#6A2AD5" transform="translate(133,172)"/>
<path d="M0 0 C2 1 2 1 2 1 Z " fill="#672AC6" transform="translate(47,172)"/>
<path d="M0 0 C2 1 2 1 2 1 Z " fill="#5454AC" transform="translate(135,171)"/>
<path d="M0 0 C2 1 2 1 2 1 Z " fill="#7E1FD0" transform="translate(45,171)"/>
<path d="M0 0 C2 1 2 1 2 1 Z " fill="#7E1FD0" transform="translate(137,170)"/>
<path d="M0 0 C2 1 2 1 2 1 Z " fill="#7E1FD0" transform="translate(42,169)"/>
<path d="M0 0 C2 1 2 1 2 1 Z " fill="#8100FF" transform="translate(140,168)"/>
<path d="M0 0 C2 1 2 1 2 1 Z " fill="#7E1FD0" transform="translate(39,167)"/>
<path d="M0 0 C2 1 2 1 2 1 Z " fill="#8100FF" transform="translate(146,164)"/>
<path d="M0 0 C2 1 2 1 2 1 Z " fill="#7E00F0" transform="translate(150,161)"/>
<path d="M0 0 C2 1 2 1 2 1 Z " fill="#6A2AD5" transform="translate(112,161)"/>
<path d="M0 0 C2 1 2 1 2 1 Z " fill="#811FDF" transform="translate(66,160)"/>
<path d="M0 0 C2 1 2 1 2 1 Z " fill="#5454AC" transform="translate(122,158)"/>
<path d="M0 0 C2 1 2 1 2 1 Z " fill="#7E00F0" transform="translate(74,158)"/>
<path d="M0 0 C2 1 2 1 2 1 Z " fill="#7E1FD0" transform="translate(61,158)"/>
<path d="M0 0 C2 1 2 1 2 1 Z " fill="#811FDF" transform="translate(124,157)"/>
<path d="M0 0 C2 1 2 1 2 1 Z " fill="#7E00F0" transform="translate(112,157)"/>
<path d="M0 0 C2 1 2 1 2 1 Z " fill="#7E00F0" transform="translate(71,157)"/>
<path d="M0 0 C2 1 2 1 2 1 Z " fill="#672AC6" transform="translate(126,156)"/>
<path d="M0 0 C2 1 2 1 2 1 Z " fill="#7E00F0" transform="translate(115,156)"/>
<path d="M0 0 C2 1 2 1 2 1 Z " fill="#7E00F0" transform="translate(69,156)"/>
<path d="M0 0 C2 1 2 1 2 1 Z " fill="#7E1FD0" transform="translate(56,156)"/>
<path d="M0 0 C2 1 2 1 2 1 Z " fill="#7E1FD0" transform="translate(128,155)"/>
<path d="M0 0 C2 1 2 1 2 1 Z " fill="#7E00F0" transform="translate(117,155)"/>
<path d="M0 0 C2 1 2 1 2 1 Z " fill="#672AC6" transform="translate(66,155)"/>
<path d="M0 0 C2 1 2 1 2 1 Z " fill="#6A2AD5" transform="translate(130,154)"/>
<path d="M0 0 C2 1 2 1 2 1 Z " fill="#672AC6" transform="translate(64,154)"/>
<path d="M0 0 C2 1 2 1 2 1 Z " fill="#7E1FD0" transform="translate(53,154)"/>
<path d="M0 0 C2 1 2 1 2 1 Z " fill="#6A2AD5" transform="translate(62,153)"/>
<path d="M0 0 C2 1 2 1 2 1 Z " fill="#811FDF" transform="translate(51,153)"/>
<path d="M0 0 C2 1 2 1 2 1 Z " fill="#7E1FD0" transform="translate(133,152)"/>
<path d="M0 0 C2 1 2 1 2 1 Z " fill="#7B00E1" transform="translate(122,152)"/>
<path d="M0 0 C2 1 2 1 2 1 Z " fill="#8100FF" transform="translate(60,152)"/>
<path d="M0 0 C2 1 2 1 2 1 Z " fill="#7E00F0" transform="translate(58,151)"/>
<path d="M0 0 C2 1 2 1 2 1 Z " fill="#7E1FD0" transform="translate(48,151)"/>
<path d="M0 0 C2 1 2 1 2 1 Z " fill="#7E00F0" transform="translate(125,150)"/>
<path d="M0 0 C2 1 2 1 2 1 Z " fill="#8100FF" transform="translate(56,150)"/>
<path d="" fill="#7E00F0" transform="translate(0,0)"/>
<path d="M0 0 C2 1 2 1 2 1 Z " fill="#672AC6" transform="translate(127,149)"/>
<path d="M0 0 C2 1 2 1 2 1 Z " fill="#672AC6" transform="translate(54,149)"/>
<path d="M0 0 C2 1 2 1 2 1 Z " fill="#8100FF" transform="translate(139,148)"/>
<path d="M0 0 C2 1 2 1 2 1 Z " fill="#7E00F0" transform="translate(51,147)"/>
<path d="M0 0 C2 1 2 1 2 1 Z " fill="#7E00F0" transform="translate(131,146)"/>
<path d="" fill="#672AC6" transform="translate(0,0)"/>
<path d="" fill="#8100FF" transform="translate(0,0)"/>
<path d="M0 0 C2 1 2 1 2 1 Z " fill="#7E00F0" transform="translate(47,144)"/>
<path d="" fill="#8100FF" transform="translate(0,0)"/>
<path d="" fill="#7E1FD0" transform="translate(0,0)"/>
<path d="M0 0 C2 1 2 1 2 1 Z " fill="#7E00F0" transform="translate(113,141)"/>
<path d="M0 0 C2 1 2 1 2 1 Z " fill="#8100FF" transform="translate(116,140)"/>
<path d="M0 0 C2 1 2 1 2 1 Z " fill="#6A2AD5" transform="translate(67,140)"/>
<path d="M0 0 C2 1 2 1 2 1 Z " fill="#811FDF" transform="translate(118,139)"/>
<path d="M0 0 C2 1 2 1 2 1 Z " fill="#6A2AD5" transform="translate(65,139)"/>
<path d="M0 0 C2 1 2 1 2 1 Z " fill="#6A2AD5" transform="translate(120,138)"/>
<path d="" fill="#7E00F0" transform="translate(0,0)"/>
<path d="M0 0 C2 1 2 1 2 1 Z " fill="#6A2AD5" transform="translate(110,137)"/>
<path d="M0 0 C2 1 2 1 2 1 Z " fill="#5454AC" transform="translate(74,137)"/>
<path d="M0 0 C2 1 2 1 2 1 Z " fill="#672AC6" transform="translate(62,137)"/>
<path d="" fill="#7B00E1" transform="translate(0,0)"/>
<path d="" fill="#672AC6" transform="translate(0,0)"/>
<path d="M0 0 C2 1 2 1 2 1 Z " fill="#6A2AD5" transform="translate(112,136)"/>
<path d="M0 0 C2 1 2 1 2 1 Z " fill="#6A2AD5" transform="translate(72,136)"/>
<path d="M0 0 C2 1 2 1 2 1 Z " fill="#7E00F0" transform="translate(124,135)"/>
<path d="M0 0 C2 1 2 1 2 1 Z " fill="#8100FF" transform="translate(114,135)"/>
<path d="M0 0 C2 1 2 1 2 1 Z " fill="#672AC6" transform="translate(70,135)"/>
<path d="" fill="#7E00F0" transform="translate(0,0)"/>
<path d="" fill="#7E00F0" transform="translate(0,0)"/>
<path d="" fill="#7E00F0" transform="translate(0,0)"/>
<path d="M0 0 C2 1 2 1 2 1 Z " fill="#672AC6" transform="translate(116,134)"/>
<path d="M0 0 C2 1 2 1 2 1 Z " fill="#672AC6" transform="translate(68,134)"/>
<path d="" fill="#672AC6" transform="translate(0,0)"/>
<path d="" fill="#8100FF" transform="translate(0,0)"/>
<path d="M0 0 C2 1 2 1 2 1 Z " fill="#7B00E1" transform="translate(127,133)"/>
<path d="M0 0 C2 1 2 1 2 1 Z " fill="#672AC6" transform="translate(66,133)"/>
<path d="M0 0 C2 1 2 1 2 1 Z " fill="#672AC6" transform="translate(119,132)"/>
<path d="" fill="#7E00F0" transform="translate(0,0)"/>
<path d="" fill="#7E00F0" transform="translate(0,0)"/>
<path d="" fill="#7E00F0" transform="translate(0,0)"/>
<path d="" fill="#7E1FD0" transform="translate(0,0)"/>
<path d="" fill="#7E00F0" transform="translate(0,0)"/>
<path d="" fill="#7E00F0" transform="translate(0,0)"/>
<path d="" fill="#8100FF" transform="translate(0,0)"/>
<path d="" fill="#7E00F0" transform="translate(0,0)"/>
<path d="" fill="#7E00F0" transform="translate(0,0)"/>
<path d="" fill="#7E00F0" transform="translate(0,0)"/>
<path d="" fill="#8100FF" transform="translate(0,0)"/>
<path d="" fill="#7E00F0" transform="translate(0,0)"/>
<path d="" fill="#7E00F0" transform="translate(0,0)"/>
<path d="" fill="#7E00F0" transform="translate(0,0)"/>
<path d="" fill="#8100FF" transform="translate(0,0)"/>
<path d="" fill="#7E00F0" transform="translate(0,0)"/>
<path d="" fill="#7E00F0" transform="translate(0,0)"/>
<path d="M0 0 C2 1 2 1 2 1 Z " fill="#811FDF" transform="translate(77,125)"/>
<path d="" fill="#7E00F0" transform="translate(0,0)"/>
<path d="M0 0 C2 1 2 1 2 1 Z " fill="#811FDF" transform="translate(110,124)"/>
<path d="M0 0 C2 1 2 1 2 1 Z " fill="#7E1FD0" transform="translate(75,124)"/>
<path d="" fill="#7E00F0" transform="translate(0,0)"/>
<path d="" fill="#8100FF" transform="translate(0,0)"/>
<path d="M0 0 C2 1 2 1 2 1 Z " fill="#811FDF" transform="translate(112,123)"/>
<path d="M0 0 C2 1 2 1 2 1 Z " fill="#6A2AD5" transform="translate(73,123)"/>
<path d="" fill="#7E00F0" transform="translate(0,0)"/>
<path d="" fill="#8100FF" transform="translate(0,0)"/>
<path d="" fill="#7E00F0" transform="translate(0,0)"/>
<path d="" fill="#7E00F0" transform="translate(0,0)"/>
<path d="" fill="#6A2AD5" transform="translate(0,0)"/>
<path d="" fill="#8100FF" transform="translate(0,0)"/>
<path d="" fill="#672AC6" transform="translate(0,0)"/>
<path d="" fill="#7E00F0" transform="translate(0,0)"/>
<path d="" fill="#7E00F0" transform="translate(0,0)"/>
<path d="" fill="#8100FF" transform="translate(0,0)"/>
<path d="" fill="#7E1FD0" transform="translate(0,0)"/>
<path d="" fill="#7E00F0" transform="translate(0,0)"/>
<path d="" fill="#672AC6" transform="translate(0,0)"/>
<path d="" fill="#672AC6" transform="translate(0,0)"/>
<path d="" fill="#7E00F0" transform="translate(0,0)"/>
<path d="" fill="#7E00F0" transform="translate(0,0)"/>
<path d="" fill="#6A2AD5" transform="translate(0,0)"/>
<path d="" fill="#672AC6" transform="translate(0,0)"/>
<path d="" fill="#5454AC" transform="translate(0,0)"/>
<path d="" fill="#6A2AD5" transform="translate(0,0)"/>
<path d="" fill="#6A2AD5" transform="translate(0,0)"/>
<path d="" fill="#6A2AD5" transform="translate(0,0)"/>
<path d="" fill="#811FDF" transform="translate(0,0)"/>
<path d="" fill="#7E1FD0" transform="translate(0,0)"/>
<path d="" fill="#7E1FD0" transform="translate(0,0)"/>
<path d="" fill="#672AC6" transform="translate(0,0)"/>
<path d="" fill="#672AC6" transform="translate(0,0)"/>
<path d="" fill="#672AC6" transform="translate(0,0)"/>
<path d="" fill="#8100FF" transform="translate(0,0)"/>
<path d="" fill="#6A2AD5" transform="translate(0,0)"/>
<path d="" fill="#8100FF" transform="translate(0,0)"/>
<path d="" fill="#672AC6" transform="translate(0,0)"/>
<path d="" fill="#7E00F0" transform="translate(0,0)"/>
<path d="" fill="#8100FF" transform="translate(0,0)"/>
<path d="" fill="#672AC6" transform="translate(0,0)"/>
<path d="" fill="#7E1FD0" transform="translate(0,0)"/>
<path d="" fill="#7B00E1" transform="translate(0,0)"/>
<path d="" fill="#8100FF" transform="translate(0,0)"/>
<path d="" fill="#672AC6" transform="translate(0,0)"/>
<path d="" fill="#8100FF" transform="translate(0,0)"/>
<path d="" fill="#672AC6" transform="translate(0,0)"/>
<path d="" fill="#6A2AD5" transform="translate(0,0)"/>
<path d="" fill="#6A2AD5" transform="translate(0,0)"/>
<path d="" fill="#5454AC" transform="translate(0,0)"/>
<path d="" fill="#7E00F0" transform="translate(0,0)"/>
<path d="" fill="#7E00F0" transform="translate(0,0)"/>
<path d="" fill="#7E00F0" transform="translate(0,0)"/>
<path d="" fill="#7E1FD0" transform="translate(0,0)"/>
<path d="" fill="#6A2AD5" transform="translate(0,0)"/>
<path d="" fill="#7E00F0" transform="translate(0,0)"/>
<path d="" fill="#6A2AD5" transform="translate(0,0)"/>
<path d="" fill="#7E00F0" transform="translate(0,0)"/>
<path d="" fill="#7E1FD0" transform="translate(0,0)"/>
<path d="" fill="#7E00F0" transform="translate(0,0)"/>
<path d="" fill="#672AC6" transform="translate(0,0)"/>
<path d="" fill="#8100FF" transform="translate(0,0)"/>
<path d="" fill="#7E00F0" transform="translate(0,0)"/>
<path d="M0 0 C2 1 2 1 2 1 Z " fill="#7E1FD0" transform="translate(111,60)"/>
<path d="M0 0 C2 1 2 1 2 1 Z " fill="#811FDF" transform="translate(72,60)"/>
<path d="" fill="#7E00F0" transform="translate(0,0)"/>
<path d="" fill="#7E00F0" transform="translate(0,0)"/>
<path d="M0 0 C2 1 2 1 2 1 Z " fill="#7E1FD0" transform="translate(109,59)"/>
<path d="M0 0 C2 1 2 1 2 1 Z " fill="#811FDF" transform="translate(74,59)"/>
<path d="" fill="#7E1FD0" transform="translate(0,0)"/>
<path d="" fill="#7E00F0" transform="translate(0,0)"/>
<path d="" fill="#8100FF" transform="translate(0,0)"/>
<path d="" fill="#672AC6" transform="translate(0,0)"/>
<path d="" fill="#7E00F0" transform="translate(0,0)"/>
<path d="M0 0 C2 1 2 1 2 1 Z " fill="#672AC6" transform="translate(107,58)"/>
<path d="" fill="#7E00F0" transform="translate(0,0)"/>
<path d="" fill="#672AC6" transform="translate(0,0)"/>
<path d="" fill="#672AC6" transform="translate(0,0)"/>
<path d="" fill="#7E00F0" transform="translate(0,0)"/>
<path d="" fill="#7E00F0" transform="translate(0,0)"/>
<path d="" fill="#7B00E1" transform="translate(0,0)"/>
<path d="" fill="#7E00F0" transform="translate(0,0)"/>
<path d="" fill="#7E00F0" transform="translate(0,0)"/>
<path d="" fill="#7E1FD0" transform="translate(0,0)"/>
<path d="" fill="#8100FF" transform="translate(0,0)"/>
<path d="" fill="#7E00F0" transform="translate(0,0)"/>
<path d="" fill="#7E00F0" transform="translate(0,0)"/>
<path d="" fill="#7E00F0" transform="translate(0,0)"/>
<path d="M0 0 C2 1 2 1 2 1 Z " fill="#7E00F0" transform="translate(121,52)"/>
<path d="" fill="#8100FF" transform="translate(0,0)"/>
<path d="M0 0 C2 1 2 1 2 1 Z " fill="#672AC6" transform="translate(65,51)"/>
<path d="" fill="#7E00F0" transform="translate(0,0)"/>
<path d="" fill="#7B00E1" transform="translate(0,0)"/>
<path d="M0 0 C2 1 2 1 2 1 Z " fill="#8100FF" transform="translate(118,50)"/>
<path d="" fill="#7E00F0" transform="translate(0,0)"/>
<path d="" fill="#7E00F0" transform="translate(0,0)"/>
<path d="M0 0 C2 1 2 1 2 1 Z " fill="#672AC6" transform="translate(68,49)"/>
<path d="" fill="#7B00E1" transform="translate(0,0)"/>
<path d="" fill="#7B00E1" transform="translate(0,0)"/>
<path d="M0 0 C2 1 2 1 2 1 Z " fill="#7E00F0" transform="translate(124,48)"/>
<path d="M0 0 C2 1 2 1 2 1 Z " fill="#672AC6" transform="translate(115,48)"/>
<path d="M0 0 C2 1 2 1 2 1 Z " fill="#8100FF" transform="translate(70,48)"/>
<path d="" fill="#7E00F0" transform="translate(0,0)"/>
<path d="" fill="#7E00F0" transform="translate(0,0)"/>
<path d="M0 0 C2 1 2 1 2 1 Z " fill="#7E1FD0" transform="translate(113,47)"/>
<path d="M0 0 C2 1 2 1 2 1 Z " fill="#6A2AD5" transform="translate(72,47)"/>
<path d="" fill="#7B00E1" transform="translate(0,0)"/>
<path d="M0 0 C2 1 2 1 2 1 Z " fill="#6A2AD5" transform="translate(110,46)"/>
<path d="M0 0 C2 1 2 1 2 1 Z " fill="#6A2AD5" transform="translate(74,46)"/>
<path d="M0 0 C2 1 2 1 2 1 Z " fill="#8100FF" transform="translate(60,46)"/>
<path d="" fill="#7E00F0" transform="translate(0,0)"/>
<path d="" fill="#7B00E1" transform="translate(0,0)"/>
<path d="M0 0 C2 1 2 1 2 1 Z " fill="#7E00F0" transform="translate(118,44)"/>
<path d="M0 0 C2 1 2 1 2 1 Z " fill="#6A2AD5" transform="translate(63,44)"/>
<path d="" fill="#7E00F0" transform="translate(0,0)"/>
<path d="M0 0 C2 1 2 1 2 1 Z " fill="#672AC6" transform="translate(116,43)"/>
<path d="M0 0 C2 1 2 1 2 1 Z " fill="#811FDF" transform="translate(65,43)"/>
<path d="M0 0 C2 1 2 1 2 1 Z " fill="#672AC6" transform="translate(114,42)"/>
<path d="M0 0 C2 1 2 1 2 1 Z " fill="#811FDF" transform="translate(67,42)"/>
<path d="M0 0 C2 1 2 1 2 1 Z " fill="#672AC6" transform="translate(112,41)"/>
<path d="" fill="#7E00F0" transform="translate(0,0)"/>
<path d="" fill="#7B00E1" transform="translate(0,0)"/>
<path d="" fill="#7E00F0" transform="translate(0,0)"/>
<path d="M0 0 C2 1 2 1 2 1 Z " fill="#7E00F0" transform="translate(135,37)"/>
<path d="" fill="#7B00E1" transform="translate(0,0)"/>
<path d="M0 0 C2 1 2 1 2 1 Z " fill="#7E00F0" transform="translate(131,34)"/>
<path d="M0 0 C2 1 2 1 2 1 Z " fill="#672AC6" transform="translate(52,34)"/>
<path d="" fill="#7E00F0" transform="translate(0,0)"/>
<path d="M0 0 C2 1 2 1 2 1 Z " fill="#7E00F0" transform="translate(138,33)"/>
<path d="M0 0 C2 1 2 1 2 1 Z " fill="#672AC6" transform="translate(128,32)"/>
<path d="M0 0 C2 1 2 1 2 1 Z " fill="#7E00F0" transform="translate(55,32)"/>
<path d="M0 0 C2 1 2 1 2 1 Z " fill="#8100FF" transform="translate(126,31)"/>
<path d="M0 0 C2 1 2 1 2 1 Z " fill="#672AC6" transform="translate(58,30)"/>
<path d="M0 0 C2 1 2 1 2 1 Z " fill="#7B00E1" transform="translate(133,29)"/>
<path d="M0 0 C2 1 2 1 2 1 Z " fill="#672AC6" transform="translate(60,29)"/>
<path d="M0 0 C2 1 2 1 2 1 Z " fill="#8100FF" transform="translate(120,28)"/>
<path d="M0 0 C2 1 2 1 2 1 Z " fill="#7E00F0" transform="translate(62,28)"/>
<path d="M0 0 C2 1 2 1 2 1 Z " fill="#7B00E1" transform="translate(130,27)"/>
<path d="M0 0 C2 1 2 1 2 1 Z " fill="#6A2AD5" transform="translate(118,27)"/>
<path d="M0 0 C2 1 2 1 2 1 Z " fill="#672AC6" transform="translate(64,27)"/>
<path d="M0 0 C2 1 2 1 2 1 Z " fill="#7B00E1" transform="translate(125,24)"/>
<path d="M0 0 C2 1 2 1 2 1 Z " fill="#7B00E1" transform="translate(123,23)"/>
<path d="M0 0 C2 1 2 1 2 1 Z " fill="#7E00F0" transform="translate(121,22)"/>
<path d="M0 0 C2 1 2 1 2 1 Z " fill="#7B00E1" transform="translate(119,21)"/>
<path d="M0 0 C2 1 2 1 2 1 Z " fill="#8100FF" transform="translate(117,20)"/>
<path d="M0 0 C2 1 2 1 2 1 Z " fill="#7B00E1" transform="translate(145,14)"/>
<path d="M0 0 C2 1 2 1 2 1 Z " fill="#7E00F0" transform="translate(142,12)"/>
<path d="M0 0 C2 1 2 1 2 1 Z " fill="#7E00F0" transform="translate(135,8)"/>
<path d="M0 0 C2 1 2 1 2 1 Z " fill="#7B00E1" transform="translate(130,6)"/>
<path d="M0 0 C2 1 2 1 2 1 Z " fill="#7B00E1" transform="translate(128,5)"/>
<path d="" fill="#7B00E1" transform="translate(0,0)"/>
<path d="" fill="#5454AC" transform="translate(0,0)"/>
<path d="" fill="#813EC0" transform="translate(0,0)"/>
<path d="" fill="#5454AC" transform="translate(0,0)"/>
<path d="" fill="#5454AC" transform="translate(0,0)"/>
<path d="" fill="#5454AC" transform="translate(0,0)"/>
<path d="" fill="#813EC0" transform="translate(0,0)"/>
<path d="" fill="#5454AC" transform="translate(0,0)"/>
<path d="" fill="#5454AC" transform="translate(0,0)"/>
<path d="" fill="#5454AC" transform="translate(0,0)"/>
<path d="" fill="#813EC0" transform="translate(0,0)"/>
<path d="" fill="#8100FF" transform="translate(0,0)"/>
<path d="" fill="#813EC0" transform="translate(0,0)"/>
<path d="" fill="#813EC0" transform="translate(0,0)"/>
<path d="" fill="#813EC0" transform="translate(0,0)"/>
<path d="" fill="#813EC0" transform="translate(0,0)"/>
<path d="" fill="#813EC0" transform="translate(0,0)"/>
<path d="" fill="#813EC0" transform="translate(0,0)"/>
<path d="" fill="#813EC0" transform="translate(0,0)"/>
<path d="" fill="#813EC0" transform="translate(0,0)"/>
<path d="" fill="#813EC0" transform="translate(0,0)"/>
<path d="" fill="#813EC0" transform="translate(0,0)"/>
<path d="" fill="#813EC0" transform="translate(0,0)"/>
<path d="" fill="#813EC0" transform="translate(0,0)"/>
<path d="" fill="#813EC0" transform="translate(0,0)"/>
<path d="" fill="#7B00E1" transform="translate(0,0)"/>
<path d="" fill="#5454AC" transform="translate(0,0)"/>
<path d="" fill="#813EC0" transform="translate(0,0)"/>
<path d="" fill="#5454AC" transform="translate(0,0)"/>
<path d="" fill="#7B00E1" transform="translate(0,0)"/>
<path d="" fill="#5454AC" transform="translate(0,0)"/>
<path d="" fill="#813EC0" transform="translate(0,0)"/>
<path d="" fill="#813EC0" transform="translate(0,0)"/>
<path d="" fill="#8100FF" transform="translate(0,0)"/>
<path d="" fill="#5454AC" transform="translate(0,0)"/>
<path d="" fill="#8100FF" transform="translate(0,0)"/>
<path d="" fill="#8100FF" transform="translate(0,0)"/>
<path d="" fill="#813EC0" transform="translate(0,0)"/>
<path d="" fill="#5454AC" transform="translate(0,0)"/>
<path d="" fill="#5454AC" transform="translate(0,0)"/>
<path d="" fill="#8100FF" transform="translate(0,0)"/>
<path d="" fill="#5454AC" transform="translate(0,0)"/>
<path d="" fill="#5454AC" transform="translate(0,0)"/>
<path d="" fill="#813EC0" transform="translate(0,0)"/>
<path d="" fill="#813EC0" transform="translate(0,0)"/>
<path d="" fill="#813EC0" transform="translate(0,0)"/>
<path d="" fill="#8100FF" transform="translate(0,0)"/>
<path d="" fill="#5454AC" transform="translate(0,0)"/>
<path d="" fill="#813EC0" transform="translate(0,0)"/>
<path d="" fill="#8100FF" transform="translate(0,0)"/>
<path d="" fill="#813EC0" transform="translate(0,0)"/>
<path d="" fill="#813EC0" transform="translate(0,0)"/>
<path d="" fill="#8100FF" transform="translate(0,0)"/>
<path d="" fill="#5454AC" transform="translate(0,0)"/>
<path d="" fill="#5454AC" transform="translate(0,0)"/>
<path d="" fill="#813EC0" transform="translate(0,0)"/>
<path d="" fill="#7B00E1" transform="translate(0,0)"/>
<path d="" fill="#5454AC" transform="translate(0,0)"/>
<path d="" fill="#5454AC" transform="translate(0,0)"/>
<path d="" fill="#813EC0" transform="translate(0,0)"/>
<path d="" fill="#813EC0" transform="translate(0,0)"/>
<path d="" fill="#8100FF" transform="translate(0,0)"/>
<path d="" fill="#8100FF" transform="translate(0,0)"/>
<path d="" fill="#8100FF" transform="translate(0,0)"/>
<path d="" fill="#813EC0" transform="translate(0,0)"/>
<path d="" fill="#8100FF" transform="translate(0,0)"/>
<path d="" fill="#8100FF" transform="translate(0,0)"/>
<path d="" fill="#813EC0" transform="translate(0,0)"/>
<path d="" fill="#5454AC" transform="translate(0,0)"/>
<path d="" fill="#5454AC" transform="translate(0,0)"/>
<path d="" fill="#813EC0" transform="translate(0,0)"/>
<path d="" fill="#813EC0" transform="translate(0,0)"/>
<path d="" fill="#5454AC" transform="translate(0,0)"/>
<path d="" fill="#5454AC" transform="translate(0,0)"/>
<path d="" fill="#813EC0" transform="translate(0,0)"/>
<path d="" fill="#5454AC" transform="translate(0,0)"/>
<path d="" fill="#5454AC" transform="translate(0,0)"/>
<path d="" fill="#5454AC" transform="translate(0,0)"/>
<path d="" fill="#5454AC" transform="translate(0,0)"/>
<path d="" fill="#813EC0" transform="translate(0,0)"/>
<path d="" fill="#8100FF" transform="translate(0,0)"/>
<path d="" fill="#5454AC" transform="translate(0,0)"/>
<path d="" fill="#5454AC" transform="translate(0,0)"/>
<path d="" fill="#8100FF" transform="translate(0,0)"/>
<path d="" fill="#8100FF" transform="translate(0,0)"/>
<path d="" fill="#5454AC" transform="translate(0,0)"/>
<path d="" fill="#8100FF" transform="translate(0,0)"/>
<path d="" fill="#813EC0" transform="translate(0,0)"/>
<path d="" fill="#8100FF" transform="translate(0,0)"/>
<path d="" fill="#5454AC" transform="translate(0,0)"/>
<path d="" fill="#5454AC" transform="translate(0,0)"/>
<path d="" fill="#5454AC" transform="translate(0,0)"/>
<path d="" fill="#8100FF" transform="translate(0,0)"/>
<path d="" fill="#5454AC" transform="translate(0,0)"/>
<path d="" fill="#5454AC" transform="translate(0,0)"/>
<path d="" fill="#5454AC" transform="translate(0,0)"/>
<path d="" fill="#5454AC" transform="translate(0,0)"/>
<path d="" fill="#5454AC" transform="translate(0,0)"/>
<path d="" fill="#5454AC" transform="translate(0,0)"/>
<path d="" fill="#813EC0" transform="translate(0,0)"/>
<path d="" fill="#5454AC" transform="translate(0,0)"/>
<path d="" fill="#5454AC" transform="translate(0,0)"/>
<path d="" fill="#813EC0" transform="translate(0,0)"/>
<path d="" fill="#5454AC" transform="translate(0,0)"/>
<path d="" fill="#5454AC" transform="translate(0,0)"/>
<path d="" fill="#5454AC" transform="translate(0,0)"/>
<path d="" fill="#813EC0" transform="translate(0,0)"/>
<path d="" fill="#5454AC" transform="translate(0,0)"/>
<path d="" fill="#5454AC" transform="translate(0,0)"/>
<path d="" fill="#813EC0" transform="translate(0,0)"/>
<path d="" fill="#5454AC" transform="translate(0,0)"/>
<path d="" fill="#5454AC" transform="translate(0,0)"/>
<path d="" fill="#813EC0" transform="translate(0,0)"/>
<path d="" fill="#5454AC" transform="translate(0,0)"/>
<path d="" fill="#5454AC" transform="translate(0,0)"/>
<path d="" fill="#813EC0" transform="translate(0,0)"/>
<path d="" fill="#5454AC" transform="translate(0,0)"/>
<path d="" fill="#813EC0" transform="translate(0,0)"/>
<path d="" fill="#5454AC" transform="translate(0,0)"/>
<path d="" fill="#5454AC" transform="translate(0,0)"/>
<path d="" fill="#813EC0" transform="translate(0,0)"/>
<path d="" fill="#5454AC" transform="translate(0,0)"/>
<path d="" fill="#8100FF" transform="translate(0,0)"/>
<path d="" fill="#813EC0" transform="translate(0,0)"/>
<path d="" fill="#813EC0" transform="translate(0,0)"/>
<path d="" fill="#5454AC" transform="translate(0,0)"/>
<path d="" fill="#8100FF" transform="translate(0,0)"/>
<path d="" fill="#5454AC" transform="translate(0,0)"/>
<path d="" fill="#8100FF" transform="translate(0,0)"/>
<path d="" fill="#813EC0" transform="translate(0,0)"/>
<path d="" fill="#813EC0" transform="translate(0,0)"/>
<path d="" fill="#5454AC" transform="translate(0,0)"/>
<path d="" fill="#5454AC" transform="translate(0,0)"/>
<path d="" fill="#813EC0" transform="translate(0,0)"/>
<path d="" fill="#813EC0" transform="translate(0,0)"/>
<path d="" fill="#813EC0" transform="translate(0,0)"/>
<path d="" fill="#813EC0" transform="translate(0,0)"/>
<path d="" fill="#8100FF" transform="translate(0,0)"/>
<path d="" fill="#813EC0" transform="translate(0,0)"/>
<path d="" fill="#8100FF" transform="translate(0,0)"/>
<path d="" fill="#813EC0" transform="translate(0,0)"/>
<path d="" fill="#8100FF" transform="translate(0,0)"/>
<path d="" fill="#813EC0" transform="translate(0,0)"/>
<path d="" fill="#8100FF" transform="translate(0,0)"/>
<path d="" fill="#7B00E1" transform="translate(0,0)"/>
<path d="" fill="#5454AC" transform="translate(0,0)"/>
<path d="" fill="#5454AC" transform="translate(0,0)"/>
<path d="" fill="#5454AC" transform="translate(0,0)"/>
<path d="" fill="#5454AC" transform="translate(0,0)"/>
<path d="" fill="#813EC0" transform="translate(0,0)"/>
<path d="" fill="#813EC0" transform="translate(0,0)"/>
<path d="" fill="#813EC0" transform="translate(0,0)"/>
<path d="" fill="#5454AC" transform="translate(0,0)"/>
<path d="" fill="#813EC0" transform="translate(0,0)"/>
<path d="" fill="#8100FF" transform="translate(0,0)"/>
<path d="" fill="#5454AC" transform="translate(0,0)"/>
<path d="" fill="#813EC0" transform="translate(0,0)"/>
<path d="" fill="#813EC0" transform="translate(0,0)"/>
<path d="" fill="#813EC0" transform="translate(0,0)"/>
<path d="" fill="#813EC0" transform="translate(0,0)"/>
<path d="" fill="#813EC0" transform="translate(0,0)"/>
<path d="" fill="#8100FF" transform="translate(0,0)"/>
<path d="" fill="#8100FF" transform="translate(0,0)"/>
<path d="" fill="#5454AC" transform="translate(0,0)"/>
<path d="" fill="#813EC0" transform="translate(0,0)"/>
<path d="" fill="#5454AC" transform="translate(0,0)"/>
<path d="" fill="#5454AC" transform="translate(0,0)"/>
<path d="" fill="#813EC0" transform="translate(0,0)"/>
<path d="" fill="#5454AC" transform="translate(0,0)"/>
<path d="" fill="#8100FF" transform="translate(0,0)"/>
<path d="" fill="#5454AC" transform="translate(0,0)"/>
<path d="" fill="#813EC0" transform="translate(0,0)"/>
<path d="" fill="#8100FF" transform="translate(0,0)"/>
<path d="" fill="#813EC0" transform="translate(0,0)"/>
<path d="" fill="#8100FF" transform="translate(0,0)"/>
<path d="" fill="#8100FF" transform="translate(0,0)"/>
<path d="" fill="#813EC0" transform="translate(0,0)"/>
<path d="" fill="#813EC0" transform="translate(0,0)"/>
<path d="" fill="#8100FF" transform="translate(0,0)"/>
<path d="" fill="#5454AC" transform="translate(0,0)"/>
<path d="" fill="#5454AC" transform="translate(0,0)"/>
<path d="" fill="#813EC0" transform="translate(0,0)"/>
<path d="" fill="#813EC0" transform="translate(0,0)"/>
<path d="" fill="#5454AC" transform="translate(0,0)"/>
<path d="" fill="#5454AC" transform="translate(0,0)"/>
<path d="" fill="#813EC0" transform="translate(0,0)"/>
<path d="" fill="#8100FF" transform="translate(0,0)"/>
<path d="" fill="#5454AC" transform="translate(0,0)"/>
<path d="" fill="#5454AC" transform="translate(0,0)"/>
<path d="" fill="#5454AC" transform="translate(0,0)"/>
<path d="" fill="#813EC0" transform="translate(0,0)"/>
<path d="" fill="#8100FF" transform="translate(0,0)"/>
<path d="" fill="#8100FF" transform="translate(0,0)"/>
<path d="" fill="#8100FF" transform="translate(0,0)"/>
<path d="" fill="#5454AC" transform="translate(0,0)"/>
<path d="" fill="#5454AC" transform="translate(0,0)"/>
<path d="" fill="#8100FF" transform="translate(0,0)"/>
<path d="" fill="#5454AC" transform="translate(0,0)"/>
<path d="" fill="#5454AC" transform="translate(0,0)"/>
<path d="" fill="#5454AC" transform="translate(0,0)"/>
<path d="" fill="#5454AC" transform="translate(0,0)"/>
<path d="" fill="#8100FF" transform="translate(0,0)"/>
<path d="" fill="#8100FF" transform="translate(0,0)"/>
<path d="" fill="#5454AC" transform="translate(0,0)"/>
<path d="" fill="#5454AC" transform="translate(0,0)"/>
<path d="" fill="#5454AC" transform="translate(0,0)"/>
<path d="" fill="#5454AC" transform="translate(0,0)"/>
<path d="" fill="#5454AC" transform="translate(0,0)"/>
<path d="" fill="#5454AC" transform="translate(0,0)"/>
<path d="" fill="#8100FF" transform="translate(0,0)"/>
<path d="" fill="#813EC0" transform="translate(0,0)"/>
<path d="" fill="#813EC0" transform="translate(0,0)"/>
<path d="" fill="#8100FF" transform="translate(0,0)"/>
<path d="" fill="#8100FF" transform="translate(0,0)"/>
<path d="" fill="#813EC0" transform="translate(0,0)"/>
<path d="" fill="#813EC0" transform="translate(0,0)"/>
<path d="" fill="#7B00E1" transform="translate(0,0)"/>
<path d="" fill="#8100FF" transform="translate(0,0)"/>
<path d="" fill="#813EC0" transform="translate(0,0)"/>
<path d="" fill="#8100FF" transform="translate(0,0)"/>
<path d="" fill="#7B00E1" transform="translate(0,0)"/>
<path d="" fill="#8100FF" transform="translate(0,0)"/>
<path d="" fill="#813EC0" transform="translate(0,0)"/>
<path d="" fill="#8100FF" transform="translate(0,0)"/>
<path d="" fill="#8100FF" transform="translate(0,0)"/>
<path d="" fill="#8100FF" transform="translate(0,0)"/>
<path d="" fill="#5454AC" transform="translate(0,0)"/>
<path d="" fill="#8100FF" transform="translate(0,0)"/>
<path d="" fill="#8100FF" transform="translate(0,0)"/>
<path d="" fill="#5454AC" transform="translate(0,0)"/>
<path d="" fill="#8100FF" transform="translate(0,0)"/>
<path d="" fill="#8100FF" transform="translate(0,0)"/>
<path d="" fill="#8100FF" transform="translate(0,0)"/>
<path d="" fill="#8100FF" transform="translate(0,0)"/>
<path d="" fill="#8100FF" transform="translate(0,0)"/>
<path d="" fill="#8100FF" transform="translate(0,0)"/>
<path d="" fill="#8100FF" transform="translate(0,0)"/>
<path d="" fill="#8100FF" transform="translate(0,0)"/>
<path d="" fill="#8100FF" transform="translate(0,0)"/>
<path d="" fill="#8100FF" transform="translate(0,0)"/>
<path d="" fill="#8100FF" transform="translate(0,0)"/>
<path d="" fill="#8100FF" transform="translate(0,0)"/>
<path d="" fill="#8100FF" transform="translate(0,0)"/>
<path d="" fill="#8100FF" transform="translate(0,0)"/>
<path d="" fill="#8100FF" transform="translate(0,0)"/>
<path d="" fill="#8100FF" transform="translate(0,0)"/>
<path d="" fill="#8100FF" transform="translate(0,0)"/>
<path d="" fill="#5454AC" transform="translate(0,0)"/>
<path d="" fill="#8100FF" transform="translate(0,0)"/>
<path d="" fill="#8100FF" transform="translate(0,0)"/>
<path d="" fill="#5454AC" transform="translate(0,0)"/>
<path d="" fill="#5454AC" transform="translate(0,0)"/>
<path d="" fill="#7B00E1" transform="translate(0,0)"/>
<path d="" fill="#8100FF" transform="translate(0,0)"/>
<path d="" fill="#8100FF" transform="translate(0,0)"/>
<path d="" fill="#8100FF" transform="translate(0,0)"/>
<path d="" fill="#8100FF" transform="translate(0,0)"/>
<path d="" fill="#7B00E1" transform="translate(0,0)"/>
<path d="" fill="#8100FF" transform="translate(0,0)"/>
<path d="" fill="#8100FF" transform="translate(0,0)"/>
<path d="" fill="#8100FF" transform="translate(0,0)"/>
<path d="" fill="#8100FF" transform="translate(0,0)"/>
<path d="" fill="#8100FF" transform="translate(0,0)"/>
<path d="" fill="#5454AC" transform="translate(0,0)"/>
<path d="" fill="#7B00E1" transform="translate(0,0)"/>
<path d="" fill="#7B00E1" transform="translate(0,0)"/>
<path d="" fill="#7B00E1" transform="translate(0,0)"/>
<path d="" fill="#7B00E1" transform="translate(0,0)"/>
<path d="" fill="#8100FF" transform="translate(0,0)"/>
<path d="" fill="#5454AC" transform="translate(0,0)"/>
<path d="" fill="#8100FF" transform="translate(0,0)"/>
<path d="" fill="#8100FF" transform="translate(0,0)"/>
<path d="" fill="#8100FF" transform="translate(0,0)"/>
<path d="" fill="#8100FF" transform="translate(0,0)"/>
<path d="" fill="#8100FF" transform="translate(0,0)"/>
<path d="" fill="#8100FF" transform="translate(0,0)"/>
<path d="" fill="#8100FF" transform="translate(0,0)"/>
<path d="" fill="#8100FF" transform="translate(0,0)"/>
<path d="" fill="#8100FF" transform="translate(0,0)"/>
<path d="" fill="#8100FF" transform="translate(0,0)"/>
<path d="" fill="#8100FF" transform="translate(0,0)"/>
<path d="" fill="#8100FF" transform="translate(0,0)"/>
<path d="" fill="#7B00E1" transform="translate(0,0)"/>
<path d="" fill="#7B00E1" transform="translate(0,0)"/>
<path d="" fill="#7B00E1" transform="translate(0,0)"/>
<path d="" fill="#7B00E1" transform="translate(0,0)"/>
<path d="" fill="#8100FF" transform="translate(0,0)"/>
<path d="" fill="#8100FF" transform="translate(0,0)"/>
<path d="" fill="#8100FF" transform="translate(0,0)"/>
<path d="" fill="#8100FF" transform="translate(0,0)"/>
<path d="" fill="#7B00E1" transform="translate(0,0)"/>
<path d="" fill="#8100FF" transform="translate(0,0)"/>
<path d="" fill="#8100FF" transform="translate(0,0)"/>
<path d="" fill="#8100FF" transform="translate(0,0)"/>
<path d="" fill="#7B00E1" transform="translate(0,0)"/>
<path d="" fill="#8100FF" transform="translate(0,0)"/>
<path d="" fill="#8100FF" transform="translate(0,0)"/>
<path d="" fill="#7B00E1" transform="translate(0,0)"/>
</svg>
